<?xml version="1.0" standalone="no"?>
<!DOCTYPE svg PUBLIC "-//W3C//DTD SVG 1.1//EN" "http://www.w3.org/Graphics/SVG/1.1/DTD/svg11.dtd" >
<svg xmlns="http://www.w3.org/2000/svg" xmlns:xlink="http://www.w3.org/1999/xlink" version="1.1">
<metadata>
Created by FontForge 20161003 at Fri Oct  5 17:13:11 2018
 By www-data
Copyright (c) Joshua Darden &#38; Phil's Fonts, Inc, 2005. All rights reserved.
</metadata>
<defs>
<font id="FreightBigBold" horiz-adv-x="656" >
  <font-face 
    font-family="FreightBigBold"
    font-weight="700"
    font-stretch="normal"
    units-per-em="1000"
    panose-1="2 0 8 3 9 0 0 2 0 4"
    ascent="800"
    descent="-200"
    x-height="427"
    cap-height="625"
    bbox="-100 -279 1008 859"
    underline-thickness="20"
    underline-position="-153"
    unicode-range="U+0020-FB02"
  />
<missing-glyph horiz-adv-x="500" 
 />
    <glyph glyph-name=".notdef" horiz-adv-x="500" 
 />
    <glyph glyph-name=".null" horiz-adv-x="0" 
 />
    <glyph glyph-name=".null" horiz-adv-x="0" 
 />
    <glyph glyph-name="nonmarkingreturn" horiz-adv-x="333" 
 />
    <glyph glyph-name="space" unicode=" " horiz-adv-x="130" 
 />
    <glyph glyph-name="exclam" unicode="!" horiz-adv-x="269" 
d="M71 573q-5 30 7.5 48t55.5 18h3q43 0 55 -17.5t7 -48.5l-59 -380q0 -3 -2 -4.5t-4.5 0t-2.5 4.5zM135 -13q-28 0 -47.5 19.5t-19.5 47.5q0 26 19.5 45t47.5 19q29 0 48 -19t19 -45q0 -28 -19 -47.5t-48 -19.5z" />
    <glyph glyph-name="quotedbl" unicode="&#x22;" horiz-adv-x="336" 
d="M275 645h1l71 -31l-171 -211h-6zM103 645h2l71 -31l-173 -211h-5z" />
    <glyph glyph-name="numbersign" unicode="#" horiz-adv-x="494" 
d="M300 201l58 221h-163l-58 -221h163zM124 193h-139v8h141l58 221h-139v8h141l53 202h11l-53 -202h163l53 202h11l-53 -202h138v-8h-140l-58 -221h138v-8h-140l-52 -198h-11l52 198h-163l-52 -198h-11z" />
    <glyph glyph-name="dollar" unicode="$" horiz-adv-x="481" 
d="M155 -7q-61 7 -118 28l-11 161h7l60 -110q33 -39 69 -55l66 251q-11 4 -14 5q-85 32 -129 70t-44 108q0 76 60.5 131t150.5 55q30 0 72 -7l29 109h10q-10 -32 -15 -55q-14 -56 -15 -56q45 -11 58 -16l41 14l3 -173h-5l-85 144q-7 6 -17 10l-14 -53q-14 -53 -28 -107
l-15 -54l4 -2t4 -1q44 -15 75 -30t59.5 -38.5t43.5 -56t15 -74.5q0 -80 -68 -141.5t-168 -61.5q-40 0 -71 4l-3 -11q-2 -11 -7.5 -31t-9.5 -37q-9 -35 -21 -78h-10q7 26 21 79q9 31 15 55t5 24zM319 611q-33 16 -70 16q-48 0 -80.5 -30.5t-32.5 -74.5q0 -47 32 -75t94 -51
q22 80 29 108zM171 13q36 -14 69 -14q59 0 96.5 34t37.5 92q0 53 -34 82.5t-102 56.5z" />
    <glyph glyph-name="percent" unicode="%" horiz-adv-x="529" 
d="M132 396q51 0 82 33t31 83q0 49 -31.5 83.5t-81.5 34.5t-81 -34.5t-31 -83.5q0 -50 30.5 -83t81.5 -33zM132 386q-56 0 -90 36.5t-34 89.5t34 90.5t90 37.5q57 0 91 -37.5t34 -90.5t-34 -89.5t-91 -36.5zM396 -3q51 0 82 33t31 83q0 49 -31.5 83.5t-81.5 34.5t-81 -34.5
t-31 -83.5q0 -50 30.5 -83t81.5 -33zM396 -13q-56 0 -90 36.5t-34 88.5q0 54 34 91.5t90 37.5q57 0 91 -37.5t34 -91.5q0 -52 -34 -88.5t-91 -36.5zM471 640h12l-428 -654h-12z" />
    <glyph glyph-name="ampersand" unicode="&#x26;" horiz-adv-x="728" 
d="M310 421q40 26 40 99q0 42 -20.5 74.5t-56.5 32.5q-33 0 -53 -26t-20 -66q0 -72 110 -114zM269 66q81 0 149 67q-31 77 -86.5 138t-126.5 90q-85 -52 -85 -149q0 -61 43 -103.5t106 -42.5zM203 -12q-88 0 -140.5 51t-52.5 126q0 72 50.5 124.5t134.5 75.5
q-42 19 -69.5 53t-27.5 76q0 57 57.5 99.5t123.5 42.5q73 0 121 -31.5t48 -77.5q0 -43 -36.5 -71t-91.5 -39q47 -21 102 -78.5t85 -111.5q78 106 78 147q0 38 -87 46l-11 1l-3 6h262l-3 -6l-12 -1q-42 -2 -68.5 -21.5t-72.5 -79.5l-78 -103q43 -95 76 -130t75 -35
q41 0 78 41l7 -4q-25 -27 -43.5 -44.5t-53 -36.5t-66.5 -19q-58 0 -95 33t-68 103q-57 -66 -109.5 -101t-109.5 -35z" />
    <glyph glyph-name="quotesingle" unicode="'" horiz-adv-x="167" 
d="M103 645h2l71 -31l-173 -211h-5z" />
    <glyph glyph-name="parenleft" unicode="(" horiz-adv-x="316" 
d="M312 -279q-43 24 -86 64.5t-83.5 98t-65.5 136.5t-25 164q0 86 25 165.5t65.5 137t83.5 97.5t86 63l5 -8q-42 -24 -84.5 -64.5t-81.5 -97t-63.5 -133.5t-24.5 -160q0 -84 24.5 -161.5t64 -133.5t81 -96t84.5 -64z" />
    <glyph glyph-name="parenright" unicode=")" horiz-adv-x="316" 
d="M-1 -271q43 24 84.5 64t81 96t64 133.5t24.5 161.5q0 83 -24.5 160t-63.5 133.5t-81.5 97t-84.5 64.5l5 8q43 -23 86 -63t83.5 -97.5t65.5 -137t25 -165.5q0 -85 -25 -164t-65.5 -136.5t-83.5 -98t-86 -64.5z" />
    <glyph glyph-name="asterisk" unicode="*" horiz-adv-x="312" 
d="M144 340l5 127q0 4 -3 5q-1 1 -2 -1l-63 -108l-68 5q-4 0 -4 3l11 67l121 34q3 3 0 7l-121 36l-12 67q0 2 4 2l69 6l62 -108q1 -4 4 -2l1 2l-4 130l60 30q1 1 3 -1l28 -58l-83 -101q-2 -2 -0.5 -4.5t3.5 -1.5l120 47l48 -46q4 -4 0 -4l-48 -45l-120 47q-2 1 -3.5 -2
t0.5 -5l82 -100l-28 -57q-1 -2 -2 -2.5t-2 0.5z" />
    <glyph glyph-name="plus" unicode="+" horiz-adv-x="433" 
d="M211 232h-204l2 10h202v204h11v-204h202l2 -10h-203l-1 -208h-11v208z" />
    <glyph glyph-name="comma" unicode="," horiz-adv-x="198" 
d="M30 -122q86 42 86 116q0 41 -31 56.5t-59 -2.5q-13 26 6.5 56.5t60.5 30.5t65 -25.5t24 -64.5q0 -49 -41.5 -98.5t-106.5 -72.5z" />
    <glyph glyph-name="hyphen" unicode="-" horiz-adv-x="280" 
d="M21 254h241l-3 -40h-241z" />
    <glyph glyph-name="period" unicode="." horiz-adv-x="213" 
d="M107 -11q-29 0 -48.5 20t-19.5 48q0 27 19.5 46t48.5 19q27 0 47 -20t20 -45q0 -28 -19.5 -48t-47.5 -20z" />
    <glyph glyph-name="slash" unicode="/" horiz-adv-x="249" 
d="M226 630h10l-210 -877h-10z" />
    <glyph glyph-name="zero" unicode="0" horiz-adv-x="573" 
d="M286 -2q58 0 95 68t37 169q0 117 -34 183t-98 66q-57 0 -94 -68t-37 -168q0 -250 131 -250zM283 -12q-109 0 -181 69.5t-72 181.5q0 111 75.5 182.5t184.5 71.5q108 0 180.5 -70t72.5 -181t-75.5 -182.5t-184.5 -71.5z" />
    <glyph glyph-name="one" unicode="1" horiz-adv-x="351" 
d="M50 6l26 1q46 1 46 15v416l-94 11l3 7l209 31v-467q0 -9 55 -13l22 -1l3 -6h-273z" />
    <glyph glyph-name="two" unicode="2" horiz-adv-x="470" 
d="M16 27q154 118 201.5 169.5t47.5 114.5q0 47 -30.5 77.5t-75.5 30.5q-83 0 -127 -85l-7 3q69 154 205 154q63 0 104.5 -37t41.5 -91q0 -15 -2.5 -29t-11 -28.5t-15.5 -25.5t-23.5 -27t-28 -26.5t-36.5 -30t-40.5 -31t-49.5 -36t-54 -39.5v-2l257 -1q24 0 77 126l5 11
l8 -2l-50 -222h-391z" />
    <glyph glyph-name="three" unicode="3" horiz-adv-x="430" 
d="M149 -201q-64 0 -102.5 23.5t-38.5 57.5q0 24 16 39.5t40 15.5q38 0 59.5 -35t15.5 -80q18 -6 36 -6q52 0 88.5 46t36.5 113q0 72 -40.5 117.5t-106.5 45.5q-40 0 -85 -20l-3 9q45 25 59.5 33.5t45 27t39.5 28.5t23.5 26.5t18.5 32.5t4 36q0 50 -29.5 80t-77.5 30
q-86 0 -124 -84l-7 3q63 153 197 153q67 0 108 -36.5t41 -89.5q0 -29 -11.5 -53t-35.5 -43.5t-43.5 -31.5t-53.5 -30v-1q87 -2 137 -54t50 -126q0 -89 -74.5 -158t-182.5 -69z" />
    <glyph glyph-name="four" unicode="4" horiz-adv-x="503" 
d="M267 81v286h-1l-196 -286h197zM267 5h-255l-1 9l318 466h47v-400h118l-25 -75h-93v-189h-109v189z" />
    <glyph glyph-name="five" unicode="5" horiz-adv-x="409" 
d="M116 -200q-136 0 -136 81q0 24 16.5 40.5t41.5 16.5q37 0 56 -35.5t12 -74.5q26 -12 49 -12q49 0 84.5 42.5t35.5 108.5q0 84 -63.5 132t-181.5 57l82 319h274l-23 -105h-267l-28 -113q157 -14 230 -73.5t73 -151.5q0 -93 -78 -162.5t-177 -69.5z" />
    <glyph glyph-name="six" unicode="6" horiz-adv-x="525" 
d="M275 -3q50 0 77.5 48t27.5 136q0 82 -35.5 127.5t-94.5 45.5q-51 0 -85 -34q-12 -21 -12 -89q0 -110 30 -172t92 -62zM267 -13q-106 0 -173 71.5t-67 178.5q0 168 133.5 287.5t333.5 135.5l2 -7q-69 -10 -127.5 -41.5t-98 -76.5t-65.5 -94.5t-40 -103.5l1 -2
q73 60 152 60t130 -50t51 -136q0 -95 -67.5 -158.5t-164.5 -63.5z" />
    <glyph glyph-name="seven" unicode="7" horiz-adv-x="448" 
d="M389 373v4h-174q-100 0 -134.5 -16t-46.5 -69l-2 -9l-10 1l23 192h392l1 -7l-263 -653h-100z" />
    <glyph glyph-name="eight" unicode="8" horiz-adv-x="498" 
d="M302 359q48 36 48 118q0 61 -30 108t-79 47q-46 0 -72.5 -34.5t-26.5 -81.5q0 -52 40 -88.5t120 -68.5zM257 -2q52 0 84 34t32 84q0 55 -47 96t-134 77q-57 -37 -57 -131q0 -61 34.5 -110.5t87.5 -49.5zM252 -15q-98 0 -161 47t-63 120q0 50 43 88t109 53v2
q-66 32 -101.5 68.5t-35.5 90.5q0 74 55 130t146 56q92 0 151.5 -42.5t59.5 -111.5q0 -43 -40 -78t-101 -52v-1q74 -31 115 -72.5t41 -103.5q0 -80 -62 -137t-156 -57z" />
    <glyph glyph-name="nine" unicode="9" horiz-adv-x="525" 
d="M274 128q50 0 85 33q11 19 11 91q0 99 -28.5 165t-91.5 66q-47 0 -76.5 -47t-29.5 -135q0 -78 35.5 -125.5t94.5 -47.5zM28 -172q69 10 127.5 41.5t98 76.5t65.5 94.5t40 103.5l-2 1q-72 -60 -151 -60t-130.5 50.5t-51.5 137.5q0 96 69 158t165 62q107 0 173 -71.5
t66 -177.5q0 -167 -134 -287t-333 -136z" />
    <glyph glyph-name="colon" unicode=":" horiz-adv-x="211" 
d="M107 285q-29 0 -48.5 20t-19.5 48q0 27 19.5 46t48.5 19q28 0 47.5 -19.5t19.5 -45.5q0 -27 -20 -47.5t-47 -20.5zM107 -11q-29 0 -48.5 19.5t-19.5 46.5t19.5 46t48.5 19q28 0 47.5 -19.5t19.5 -45.5q0 -27 -20 -46.5t-47 -19.5z" />
    <glyph glyph-name="semicolon" unicode=";" horiz-adv-x="198" 
d="M101 285q-28 0 -47.5 20t-19.5 48q0 26 19.5 45.5t47.5 19.5t47.5 -19.5t19.5 -45.5q0 -28 -19 -48t-48 -20zM30 -120q86 42 86 114q0 40 -31 56t-59 -2q-13 24 6.5 55.5t60.5 31.5t65 -26t24 -64q0 -48 -41.5 -97.5t-106.5 -72.5z" />
    <glyph glyph-name="less" unicode="&#x3c;" horiz-adv-x="420" 
d="M5 230v11l398 196l5 -11l-387 -189v-2l387 -191l-5 -11z" />
    <glyph glyph-name="equal" unicode="=" horiz-adv-x="428" 
d="M15 328h398l-3 -10h-392zM18 153h392l3 -10h-398z" />
    <glyph glyph-name="greater" unicode="&#x3e;" horiz-adv-x="420" 
d="M12 44l387 191v2l-387 189l5 11l398 -196v-11l-398 -197z" />
    <glyph glyph-name="question" unicode="?" horiz-adv-x="321" 
d="M153 179q-35 27 -61.5 61.5t-26.5 59.5q0 36 26.5 55.5t86.5 40.5q58 21 78 34t20 32q0 33 -38.5 56t-111.5 23q-38 0 -82 -11q-24 20 -25 54q-5 55 72 55q88 0 143.5 -65t55.5 -149q0 -51 -17 -75.5t-62 -42.5q-74 -28 -86 -41q-8 -9 -8 -21q0 -17 9.5 -30.5t33.5 -33.5
zM153 -12q-27 0 -47 20t-20 46t19.5 45.5t47.5 19.5q29 0 48 -19t19 -46t-19 -46.5t-48 -19.5z" />
    <glyph glyph-name="at" unicode="@" horiz-adv-x="765" 
d="M295 117q26 0 61.5 38t72.5 112q29 51 29 72q0 30 -21 56.5t-47 26.5q-17 0 -34 -17q-34 -32 -66.5 -104.5t-32.5 -126.5q0 -27 10.5 -42t27.5 -15zM388 -103q-160 0 -261.5 95.5t-101.5 246.5q0 166 114 284.5t274 118.5q143 0 235.5 -87t92.5 -221q0 -110 -71 -193.5
t-161 -83.5q-50 0 -78 23.5t-28 62.5q0 35 21 84h-2q-56 -90 -94 -130t-81 -40q-37 0 -64 26.5t-28 65.5q0 55 40.5 124t97.5 122q73 70 132 70q27 0 41 -31.5t8 -70.5h1l45 126l98 -4l-66 -166l-45 -117q-35 -99 59 -99q59 0 112 68t53 163q0 129 -90 214t-228 85
q-156 0 -267 -116t-111 -278q0 -146 98.5 -239.5t254.5 -93.5q105 0 195 54.5t128 135.5l9 -4q-41 -84 -132 -139.5t-200 -55.5z" />
    <glyph glyph-name="A" unicode="A" 
d="M180 269l-36 -101q-35 -101 -33 -122q1 -23 33 -31q14 -4 43 -7l20 -2l3 -6h-220l3 6l17 2q35 4 52 17.5t34.5 50.5t51.5 132l112 314l-11 32q55 16 85 88h18l172 -505q28 -80 46 -103.5t52 -25.5l28 -2l2 -6h-313l3 6l27 2q37 2 42.5 22.5t-11.5 68.5l-56 170h-164z
M341 279l-75 228h-1l-81 -228h157z" />
    <glyph glyph-name="B" unicode="B" horiz-adv-x="608" 
d="M257 346q71 -1 113 34t42 100q0 132 -153 132l-26 -1v-265h24zM293 12q2 1 6 1h-1q64 4 104.5 49.5t40.5 110.5q0 73 -48.5 118.5t-121.5 45.5q-25 0 -40 -3v-307l52 -17zM20 6l37 4q47 5 47 17v574q0 5 -10 7.5t-47 6.5l-26 3l-3 7h265q262 0 262 -139q0 -107 -185 -135
v-3q103 -7 160.5 -53t57.5 -116q0 -83 -70 -131t-209 -48h-282z" />
    <glyph glyph-name="C" unicode="C" horiz-adv-x="685" 
d="M388 -12q-161 0 -261 90.5t-100 229.5q0 143 100.5 237t271.5 94q95 0 161 -38l64 21l6 -201h-6l-101 177q-41 29 -126 29q-108 0 -169 -88t-61 -225q0 -142 65 -228.5t161 -86.5q80 0 131.5 37.5t90.5 112.5l31 59h6l-34 -177l-33 -5q-29 -13 -89 -25.5t-108 -12.5z" />
    <glyph glyph-name="D" unicode="D" horiz-adv-x="688" 
d="M300 11q106 0 165 83.5t59 204.5q0 147 -59 231t-179 84h-53v-585zM20 6l37 4q47 5 47 17v574q0 6 -10 8.5t-47 6.5l-26 3l-3 6q57 1 150 1h143q172 2 262 -80t90 -227q0 -135 -102.5 -227t-267.5 -92h-276z" />
    <glyph glyph-name="E" unicode="E" horiz-adv-x="609" 
d="M20 6l35 4q49 6 49 17v574q0 4 -3.5 6t-16 4.5t-37.5 4.5l-26 3l-3 6h510l10 -204h-6l-4 11q-28 100 -78 142t-140 40l-77 -1v-287h43q67 4 99.5 24t48.5 69l6 18l7 -1l-26 -239l-7 1l-1 18q-4 54 -32 74t-104 24l-34 2v-302l98 -4q91 2 147 50.5t88 137.5l5 11h6
l-28 -209h-532z" />
    <glyph glyph-name="F" unicode="F" horiz-adv-x="575" 
d="M20 6l39 4q45 5 45 17v574q0 4 -3 6t-15 4.5t-37 4.5l-28 3l-3 6h514l10 -192h-6l-5 11q-35 94 -81.5 132.5t-134.5 38.5l-82 -2v-292l43 2q67 2 99.5 22t48.5 68l6 19l7 -1l-26 -239l-7 1l-1 17q-4 55 -32.5 77t-103.5 22l-34 1v-286q0 -11 56 -15l43 -3l3 -6h-318z" />
    <glyph glyph-name="G" unicode="G" horiz-adv-x="716" 
d="M380 -16q-160 0 -256.5 92t-96.5 232q0 144 98 237.5t272 93.5q47 0 94.5 -10.5t72.5 -25.5l63 19l4 -201h-6l-98 175q-43 32 -132 32q-109 0 -168.5 -88t-59.5 -226q0 -150 67 -234.5t156 -84.5q33 0 64 10t46 21v222q0 11 -68 15l-34 3l-3 6h314l-3 -6l-42 -4
q-41 -4 -41 -14v-198l57 11l1 -4q-61 -30 -147.5 -51.5t-153.5 -21.5z" />
    <glyph glyph-name="H" unicode="H" horiz-adv-x="748" 
d="M20 6l37 4q47 5 47 17v574q0 4 -3.5 6t-16 4.5t-37.5 4.5l-26 3l-3 6h303l-3 -6l-38 -4q-47 -5 -47 -17v-275h282v278q0 4 -3.5 6t-16 4.5t-37.5 4.5l-27 3l-3 6h303l-3 -6l-37 -4q-47 -5 -47 -17v-574q0 -4 3.5 -6t16 -4.5t37.5 -4.5l26 -3l3 -6h-303l3 6l38 4
q47 5 47 17v286h-282v-289q0 -4 3.5 -6t16 -4.5t37.5 -4.5l27 -3l3 -6h-303z" />
    <glyph glyph-name="I" unicode="I" horiz-adv-x="361" 
d="M30 6l39 4q47 4 47 17v574q0 4 -3.5 6t-16 4.5t-37.5 4.5l-29 3l-3 6h307l-3 -6l-39 -4q-47 -4 -47 -17v-574q0 -4 3.5 -6t16 -4.5t37.5 -4.5l28 -3l3 -6h-306z" />
    <glyph glyph-name="J" unicode="J" horiz-adv-x="350" 
d="M2 -174q-42 0 -68 20t-26 52q0 28 19 47t49 19q49 0 63 -44.5t-23 -77.5q47 -4 71 51t24 154v554q0 11 -57 15l-28 3l-3 6h306l-3 -6l-39 -4q-47 -5 -47 -17v-554q0 -29 -36.5 -80.5t-94.5 -94.5t-107 -43z" />
    <glyph glyph-name="K" unicode="K" horiz-adv-x="697" 
d="M20 6l39 4q45 5 45 17v574q0 4 -3 6t-15 4.5t-37 4.5l-28 3l-3 6h309l-3 -6l-44 -4q-47 -4 -47 -17v-317l150 155q113 115 114 148q0 24 -55 31q-6 0 -13 1l-31 3l-2 6h267l-3 -6l-22 -2q-50 -5 -83.5 -29.5t-117.5 -111.5q-26 -28 -42 -44l-5 -5l194 -325
q37 -61 53.5 -76.5t48.5 -17.5l17 -2l3 -6h-301l2 6l19 2q20 2 29 7t9.5 19t-10.5 37t-35 63l-117 202l-69 -70v-242q0 -4 3.5 -6t16 -4.5t37.5 -4.5l33 -3l3 -6h-309z" />
    <glyph glyph-name="L" unicode="L" horiz-adv-x="576" 
d="M20 6l39 4q45 5 45 17v574q0 4 -3 6t-15 4.5t-37 4.5l-28 3l-3 6h319l-3 -6l-54 -4q-47 -3 -47 -17v-583l73 -6q80 0 130 47.5t101 159.5l6 13h6l-32 -229h-500z" />
    <glyph glyph-name="M" unicode="M" horiz-adv-x="841" 
d="M16 6l19 1q46 3 62 15t16 31l13 535q-24 24 -69 29l-28 2l-3 6h224l169 -454h1l174 454h229l-3 -6l-50 -4q-47 -4 -47 -17l12 -574q0 -6 10.5 -8.5t45.5 -6.5l29 -3l3 -6h-312l3 6l48 4q41 4 41 17l-13 554h-1l-223 -581h-10l-211 555q-5 11 -10 18l-9 -527q0 -33 96 -39
l18 -1l3 -6h-230z" />
    <glyph glyph-name="N" unicode="N" horiz-adv-x="699" 
d="M127 535h-1l1 -491q0 -31 90 -37l19 -1l3 -6h-221l3 6l20 1q73 5 73 45l3 494q-47 63 -108 72l-11 1l-2 6h230l356 -427h1l-1 382q0 32 -90 38l-18 1l-3 6h220l-3 -6l-20 -1q-73 -5 -73 -46l-4 -578h-10z" />
    <glyph glyph-name="O" unicode="O" horiz-adv-x="739" 
d="M373 -1q198 0 198 314q0 148 -54 230.5t-150 82.5q-200 0 -200 -314q0 -150 54.5 -231.5t151.5 -81.5zM364 -12q-148 0 -242.5 89.5t-94.5 234.5q0 131 103 228.5t245 97.5q148 0 242.5 -91t94.5 -236q0 -130 -103 -226.5t-245 -96.5z" />
    <glyph glyph-name="P" unicode="P" horiz-adv-x="588" 
d="M289 313q61 0 99.5 40t38.5 108q0 153 -145 154l-49 -2v-292q40 -8 56 -8zM13 6l44 4q47 5 47 17v574q0 4 -3.5 6t-16 4.5t-37.5 4.5l-33 3l-3 6h289q134 0 199 -37t65 -114q0 -79 -73.5 -125.5t-198.5 -46.5q-32 0 -59 5v-283q0 -11 56 -15l43 -3l3 -6h-325z" />
    <glyph glyph-name="Q" unicode="Q" horiz-adv-x="737" 
d="M373 -2q198 0 198 315q0 147 -54.5 230t-149.5 83q-200 0 -200 -316q0 -149 54.5 -230.5t151.5 -81.5zM599 -181q-98 0 -161 36t-107 135q-135 10 -219.5 100.5t-84.5 221.5q0 128 103.5 226.5t244.5 98.5q150 0 243.5 -93t93.5 -233q0 -97 -65 -180t-167 -119
q47 -114 105.5 -147t173.5 -17l2 -6q-79 -23 -162 -23z" />
    <glyph glyph-name="R" unicode="R" horiz-adv-x="682" 
d="M283 330q72 0 111.5 36t39.5 105q0 68 -42 106.5t-121 36.5h-38v-276q38 -8 50 -8zM13 6l44 4q47 5 47 17v574q0 4 -3.5 6t-16 4.5t-37.5 4.5l-33 3l-3 6l299 1q260 0 260 -160q0 -56 -42 -97.5t-112 -54.5l130 -205q37 -59 59.5 -78.5t60.5 -23.5l11 -1l4 -6h-217l-8 16
l-168 297q-27 6 -55 16v-305q0 -10 56 -15l38 -3l3 -6h-320z" />
    <glyph glyph-name="S" unicode="S" horiz-adv-x="514" 
d="M245 -12q-111 0 -199 35l-11 160h6l40 -77q58 -108 168 -108q63 0 98.5 34.5t35.5 94.5q0 59 -38 89.5t-117 59.5q-85 32 -129 70t-44 108q0 77 57.5 130.5t148.5 53.5q65 0 140 -25l40 14l3 -174h-5l-84 147q-40 28 -96 28q-49 0 -81 -29t-32 -74q0 -27 10.5 -47.5
t34.5 -36t45 -25.5t58 -23q88 -29 135 -73.5t47 -124.5q0 -82 -66 -144.5t-165 -62.5z" />
    <glyph glyph-name="T" unicode="T" horiz-adv-x="673" 
d="M181 6l45 4q47 4 47 17v589h-33q-45 -4 -86 -33t-65.5 -61.5t-43.5 -69.5l-7 -13h-7l29 186h561l19 -185h-6l-6 13q-31 67 -79.5 114t-112.5 49h-34v-592q0 -4 3.5 -6t16 -4.5t37.5 -4.5l34 -3l3 -6h-318z" />
    <glyph glyph-name="U" unicode="U" horiz-adv-x="697" 
d="M361 -16q-137 0 -198.5 52t-61.5 167v400q0 5 -9.5 7.5t-46.5 5.5l-34 3l-3 6h316l-3 -6l-44 -4q-47 -4 -47 -15v-368q0 -102 44 -151t134 -49q183 0 183 216l-1 332q0 33 -90 39h-19l-3 6h220l-3 -6h-19q-39 -3 -56 -16.5t-17 -30.5l-2 -326q-2 -130 -58.5 -196
t-181.5 -66z" />
    <glyph glyph-name="V" unicode="V" horiz-adv-x="658" 
d="M123 495q-35 85 -49 102.5t-49 19.5l-28 2l-2 6h307l-2 -6l-33 -1q-45 -2 -48.5 -15.5t18.5 -65.5l154 -379h2l114 300q16 42 22 59.5t11 39.5t2.5 28.5t-12 15t-24 11t-40.5 5.5l-19 2l-3 6h219l-3 -6l-17 -2q-33 -3 -49.5 -14.5t-33 -43t-46.5 -110.5l-175 -458h-10z
" />
    <glyph glyph-name="W" unicode="W" horiz-adv-x="996" 
d="M115 495q-30 78 -46 99t-51 23l-24 2l-3 6h307l-3 -6l-32 -1q-39 -2 -45.5 -13.5t8.5 -49.5l155 -404h2l120 304l-15 41q-29 75 -45.5 97t-49.5 24l-29 2l-3 6h313l-3 -6l-30 -1q-42 -2 -48.5 -13.5t9.5 -54.5l143 -392h2l109 295q12 33 18 50t11.5 37t4 29t-4.5 19
t-13.5 14.5t-25 8.5t-36.5 6l-21 2l-3 6h222l-3 -6l-16 -2q-47 -6 -63.5 -30t-59.5 -137l-174 -466h-12l-171 458h-1l-180 -458h-12z" />
    <glyph glyph-name="X" unicode="X" horiz-adv-x="660" 
d="M-2 6l28 2q44 4 73 32.5t102 130.5l78 112l-136 215q-8 12 -19 29.5t-16 25.5t-13 19.5t-12 16.5t-10.5 11t-12 8.5t-12 4.5t-14.5 3l-31 3l-4 6h313l-2 -6l-32 -1q-35 -2 -37.5 -18.5t29.5 -70.5l92 -146h1l54 79q23 34 36.5 55.5t21.5 39.5t8 27.5t-7.5 16.5t-20.5 10
t-35 5l-25 3l-3 6h239l-3 -6l-23 -2q-47 -4 -77 -31.5t-104 -132.5l-56 -79l177 -278q36 -56 50 -71t38 -17l23 -2l4 -6h-305l2 6l32 1q35 2 41 15.5t-12 42.5l-133 209h-1q1 0 -8.5 -13.5l-28.5 -40.5q-2 -2 -16 -22.5t-22 -32.5q-44 -63 -56 -94.5t0 -44.5t53 -17l25 -3
l3 -6h-239z" />
    <glyph glyph-name="Y" unicode="Y" horiz-adv-x="647" 
d="M168 6l44 4q47 4 47 17v259l-134 237q-33 57 -49.5 73.5t-49.5 20.5l-21 2l-3 6h310l-3 -6l-17 -1q-46 -4 -55 -18.5t11 -45.5l132 -236h2l75 140q23 43 33.5 66t15.5 42.5t-2.5 28t-22 13.5t-42.5 8l-22 3l-3 6h228l-3 -6l-28 -3q-39 -4 -65.5 -32.5t-78.5 -129.5
l-79 -146v-284q0 -4 3.5 -6t16 -4.5t37.5 -4.5l33 -3l3 -6h-316z" />
    <glyph glyph-name="Z" unicode="Z" horiz-adv-x="601" 
d="M30 4l376 607v2l-89 1q-104 0 -161.5 -44t-89.5 -131l-4 -11h-7l13 197h490v-5l-383 -604v-3l95 -2q118 -4 179.5 43.5t111.5 166.5l6 14h7l-33 -235h-511v4z" />
    <glyph glyph-name="bracketleft" unicode="[" horiz-adv-x="306" 
d="M53 625h244v-10h-233v-852h233v-10h-244v872z" />
    <glyph glyph-name="backslash" unicode="\" horiz-adv-x="232" 
d="M-6 630h10l210 -877h-10z" />
    <glyph glyph-name="bracketright" unicode="]" horiz-adv-x="306" 
d="M9 -237h233v852h-233v10h244v-872h-244v10z" />
    <glyph glyph-name="asciicircum" unicode="^" horiz-adv-x="370" 
d="M183 677h4l145 -197h-6l-140 96h-2l-140 -96h-6z" />
    <glyph glyph-name="underscore" unicode="_" horiz-adv-x="446" 
d="M22 0h402l3 -29h-408z" />
    <glyph glyph-name="grave" unicode="`" horiz-adv-x="400" 
d="M39 677h116l102 -187h-5z" />
    <glyph glyph-name="a" unicode="a" horiz-adv-x="449" 
d="M195 54q35 0 67 33l7 153q-76 -17 -105.5 -45t-29.5 -69q0 -32 17 -52t44 -20zM345 -11q-70 0 -81 86l-1 1q-38 -42 -69.5 -64t-67.5 -22q-43 0 -73 28.5t-30 66.5q0 55 53.5 93t191.5 73l1 34q2 62 -24.5 96.5t-75.5 34.5q-26 0 -44 -8.5t-18 -17.5q0 -2 15 -23t15 -36
q0 -22 -16 -37t-42 -15q-24 0 -40 13t-16 35q0 45 74 80t143 35q82 0 114.5 -35t28.5 -120l-9 -187q-2 -27 8.5 -41t28.5 -14q19 0 42 29l6 -3q-64 -82 -114 -82z" />
    <glyph glyph-name="b" unicode="b" horiz-adv-x="515" 
d="M272 -3q47 0 73.5 56t26.5 141q0 78 -33 129t-89 51q-47 0 -92 -43v-236q19 -42 50.5 -70t63.5 -28zM46 559q0 32 -7.5 43t-33.5 17l-23 6l1 4l175 44v-324l3 -3q71 91 157 91q75 0 126.5 -60t51.5 -151q0 -59 -22 -106.5t-57.5 -75.5t-76.5 -43t-82 -15q-60 0 -136 31
h-1l-69 -38h-6v580z" />
    <glyph glyph-name="c" unicode="c" horiz-adv-x="429" 
d="M226 -15q-90 0 -148.5 61.5t-58.5 154.5q0 103 66 172t170 69q67 0 113 -27.5t46 -70.5q0 -26 -17 -43.5t-42 -17.5q-26 0 -43 16.5t-17 40.5q0 18 12.5 38t12.5 22q0 12 -17.5 21.5t-40.5 9.5q-54 0 -87 -51t-33 -137q0 -90 39.5 -139t108.5 -49q43 0 72.5 18t52.5 60
l7 -3q-68 -145 -196 -145z" />
    <glyph glyph-name="d" unicode="d" horiz-adv-x="527" 
d="M265 51q50 0 91 43v237q-18 41 -49.5 68t-60.5 27q-49 0 -76 -56t-27 -140q0 -77 33.5 -128t88.5 -51zM356 78l-2 2q-74 -94 -157 -94q-75 0 -126.5 61t-51.5 153q0 113 74 175t164 62q61 0 97 -18h2v140q0 33 -7.5 44.5t-32.5 15.5l-33 6l1 4l185 44v-589q0 -30 5 -39
t23 -13l36 -8l-1 -4l-176 -35v93z" />
    <glyph glyph-name="e" unicode="e" horiz-adv-x="445" 
d="M310 299q0 54 -16.5 93t-54.5 39q-34 0 -60.5 -37.5t-34.5 -95.5zM227 -15q-90 0 -149 63t-59 157q0 100 66.5 169t164.5 69q81 0 126 -41.5t45 -99.5q0 -3 -2 -17q-89 0 -128 1q-40 0 -94 1t-55 1q-2 -9 -2 -48q0 -83 42 -134t110 -51q87 0 129 78l7 -3
q-68 -145 -201 -145z" />
    <glyph glyph-name="f" unicode="f" horiz-adv-x="324" 
d="M23 6l19 1q2 0 7 1q32 3 34 10q1 2 1 4v354l-80 1l24 50l56 -1l3 57q6 81 69.5 130t140.5 49q86 0 86 -55q0 -21 -16.5 -36.5t-40.5 -15.5q-50 0 -67 75l-2 8l-17 5q-26 -10 -34.5 -39.5t-8.5 -103.5v-73h124l-17 -49h-107v-357q0 -13 50 -14l34 -1l3 -6h-264z" />
    <glyph glyph-name="g" unicode="g" horiz-adv-x="477" 
d="M226 166q72 0 72 127q0 138 -74 138q-68 0 -68 -131q0 -134 70 -134zM242 -218q64 0 105 33t41 81q0 42 -31.5 61t-101.5 21q-41 2 -103 -6q-55 -23 -55 -87q0 -45 40 -74t105 -29zM189 -236q-177 0 -177 99q0 63 125 110v1q-50 3 -83.5 28.5t-33.5 60.5q0 38 35 66.5
t82 39.5v1q-42 15 -67.5 46.5t-25.5 76.5q0 61 53.5 104.5t127.5 43.5q66 0 119 -34l131 23l-10 -51l-100 14l-1 -3q42 -36 42 -90q0 -60 -53 -101.5t-131 -41.5q-31 0 -68 7q-58 -12 -58 -51q0 -37 83 -37q13 0 61 1.5t67 1.5q71 0 110 -31t39 -87q0 -85 -75 -141t-192 -56
z" />
    <glyph glyph-name="h" unicode="h" horiz-adv-x="527" 
d="M10 6l14 1q14 1 20 2t12.5 2.5t8 4.5t1.5 7v534q0 32 -7.5 43.5t-32.5 17.5l-23 6l1 4l176 44v-318l1 -2q101 89 171 89q47 0 79 -32t32 -110v-277q0 -10 51 -15l11 -1l3 -6h-236l3 6l18 1q24 2 30.5 5.5t6.5 10.5v263q0 84 -82 84q-47 0 -89 -31v-152v-166q0 -6 8 -9
t37 -5l14 -1l3 -6h-234z" />
    <glyph glyph-name="i" unicode="i" horiz-adv-x="263" 
d="M126 508q-33 0 -52 21t-19 48t19 48t52 21t52 -21t19 -48t-19 -48t-52 -21zM19 6l15 1q14 1 20 2t12.5 2.5t8 4.5t1.5 7v280q0 46 -7 59.5t-34 19.5l-23 5l1 4l176 48v-418q0 -6 9 -8.5t42 -5.5l11 -1l3 -6h-238z" />
    <glyph glyph-name="j" unicode="j" horiz-adv-x="253" 
d="M124 508q-33 0 -52.5 21.5t-19.5 47.5t19.5 47.5t52.5 21.5t51.5 -21t18.5 -48t-18.5 -48t-51.5 -21zM-18 -252q-38 0 -60 17t-22 45q0 24 16.5 40t40.5 16q35 0 52 -32t3 -65q34 2 47.5 43.5t13.5 121.5v369q0 46 -7 59.5t-34 19.5l-23 5l1 4l177 48v-469
q0 -63 -69.5 -142.5t-135.5 -79.5z" />
    <glyph glyph-name="k" unicode="k" horiz-adv-x="512" 
d="M12 6l13 1q26 2 33.5 5t7.5 11v534q0 32 -7.5 43.5t-32.5 17.5l-23 6l1 4l176 44v-470l78 72q87 81 87 112q0 15 -13.5 23.5t-50.5 10.5l-13 1l-3 6h224l-3 -6l-17 -2q-36 -4 -66.5 -24t-93.5 -83l-6 -6q-1 0 -2 -2t-2 -3l-2 -2l123 -220q24 -43 38.5 -56.5t39.5 -15.5
l13 -1l3 -6h-183l-7 15l-111 204l-33 -29v-169q0 -11 50 -14l15 -1l2 -6h-238z" />
    <glyph glyph-name="l" unicode="l" horiz-adv-x="256" 
d="M17 6l15 1q25 2 32 4.5t7 11.5v517q0 45 -7.5 58.5t-33.5 19.5l-22 6l1 4l176 44v-651q0 -6 9 -9t37 -5l13 -1l3 -6h-233z" />
    <glyph glyph-name="m" unicode="m" horiz-adv-x="797" 
d="M19 6l15 1q14 1 20 2t12.5 2.5t8 4.5t1.5 7v280q0 46 -7 59.5t-34 19.5l-23 5l1 4l178 48l-3 -86l2 -1q89 89 161 89q45 0 79 -32q21 -23 27 -57l3 -2q91 91 163 91q47 0 79 -32t32 -131v-256q0 -4 2 -5.5t13 -4.5t35 -5l11 -1l3 -6h-235l3 6l18 1q24 2 30.5 5.5
t6.5 10.5v262q0 46 -19 65.5t-62 19.5q-26 0 -49 -10.5t-28 -25.5l-1 -42v-272q0 -4 2 -5.5t11.5 -3.5t31.5 -4l14 -1l3 -6h-233l3 6l18 1q37 3 37 16v262q0 46 -19.5 65.5t-61.5 19.5q-36 0 -79 -28v-118v-203q0 -6 8 -9t37 -5l15 -1l2 -6h-235z" />
    <glyph glyph-name="n" unicode="n" horiz-adv-x="537" 
d="M19 6l15 1q14 1 20 2t12.5 2.5t8 4.5t1.5 7v280q0 46 -7 59.5t-34 19.5l-23 5l1 4l178 48l-3 -86l2 -1q30 26 50 41t55.5 31.5t66.5 16.5q47 0 79 -32t32 -110v-277q0 -10 51 -15l11 -1l3 -6h-236l3 6l18 1q24 2 30.5 5.5t6.5 10.5v262q0 85 -83 85q-46 0 -88 -31v-152
v-166q0 -6 8 -9t36 -5l15 -1l2 -6h-234z" />
    <glyph glyph-name="o" unicode="o" horiz-adv-x="516" 
d="M257 -5q53 0 83 60.5t30 153.5q0 148 -51 199q-27 25 -61 25q-55 0 -84 -60t-29 -151q0 -150 50 -202q25 -25 62 -25zM256 -14q-106 0 -171.5 66t-65.5 162q0 95 68 161.5t173 66.5t171 -64.5t66 -160.5q0 -98 -67.5 -164.5t-173.5 -66.5z" />
    <glyph glyph-name="p" unicode="p" horiz-adv-x="529" 
d="M286 -3q47 0 74 56.5t27 140.5q0 77 -33.5 127.5t-89.5 50.5q-50 0 -91 -41v-237q19 -42 50.5 -69.5t62.5 -27.5zM0 -247l18 1q14 1 20 2t12.5 2.5t8 4t1.5 6.5v534q0 46 -7 59.5t-34 19.5l-23 5l1 4l177 48l-2 -90l3 -3q71 91 157 91q75 0 126.5 -60t51.5 -151
q0 -59 -21.5 -106.5t-57 -75.5t-76 -43t-82.5 -15q-60 0 -98 18h-2v-237q0 -12 50 -13l35 -1l3 -6h-264z" />
    <glyph glyph-name="q" unicode="q" horiz-adv-x="523" 
d="M265 51q50 0 91 43v236q-18 40 -49.5 68t-60.5 28q-49 0 -76 -55t-27 -139q0 -77 33.5 -129t88.5 -52zM271 -247l35 1q50 1 50 13v311l-2 2q-74 -94 -157 -94q-75 0 -126.5 61t-51.5 153q0 59 22 106.5t57.5 75t76 41.5t82.5 14q73 0 138 -31h1l67 40h6v-677q0 -8 8 -10
t34 -5l18 -1l3 -6h-264z" />
    <glyph glyph-name="r" unicode="r" horiz-adv-x="402" 
d="M19 6l15 1q14 1 20 2t12.5 2.5t8 4.5t1.5 7v280q0 46 -7 59.5t-34 19.5l-23 5l1 4l178 48l-3 -158h2q45 160 135 160q31 0 51.5 -18.5t20.5 -48.5q0 -24 -17.5 -43t-43.5 -19q-27 0 -45.5 18t-23.5 48q-25 -4 -42 -35t-36 -102v-219q0 -11 53 -15l22 -1l3 -6h-251z" />
    <glyph glyph-name="s" unicode="s" horiz-adv-x="376" 
d="M173 -14q-80 0 -144 26l-6 125h5l24 -43q26 -51 54.5 -75t71.5 -24q39 0 62 21.5t23 57.5q0 34 -26.5 55.5t-78.5 41.5q-31 12 -49.5 21.5t-38.5 25t-29.5 37t-9.5 49.5q0 62 44.5 99.5t115.5 37.5q53 0 95 -17l39 10l5 -129l-5 -2l-74 106q-33 23 -62 23
q-36 0 -55.5 -20t-19.5 -54q0 -32 25 -50t80 -39q32 -13 50 -22t40.5 -25.5t32.5 -38.5t10 -52q0 -60 -46.5 -102.5t-132.5 -42.5z" />
    <glyph glyph-name="t" unicode="t" horiz-adv-x="348" 
d="M195 -11q-60 0 -89 30t-28 94l5 262l-81 1l20 33l71 51l97 73l4 -1l-1 -104l150 -1l-17 -48h-134l-5 -253q-1 -42 16.5 -62t56.5 -20q48 0 83 31l4 -4q-79 -82 -152 -82z" />
    <glyph glyph-name="u" unicode="u" horiz-adv-x="514" 
d="M344 76h-2q-90 -90 -171 -90q-42 0 -76 34q-33 33 -31 110l2 278q0 9 -53 12l-14 1l-3 6h183l-2 -285q-1 -44 20 -64t64 -20t81 29v154v148q0 18 -9 23.5t-42 7.5l-14 1l-3 6h181v-327q0 -29 5 -38t22 -14l37 -8l-1 -4l-176 -52z" />
    <glyph glyph-name="v" unicode="v" horiz-adv-x="478" 
d="M67 363q-14 35 -24 45t-33 12l-16 1l-3 6h252l-2 -6l-17 -1q-30 -2 -38 -12t3 -35l103 -249l65 169q28 78 20.5 99.5t-58.5 27.5l-14 1l-3 6h176l-3 -6l-14 -2q-34 -4 -46.5 -23t-48.5 -110l-115 -296h-25z" />
    <glyph glyph-name="w" unicode="w" horiz-adv-x="743" 
d="M70 353q-17 43 -26.5 54t-34.5 13l-16 1l-2 6h243l-2 -6l-17 -1q-27 -2 -33 -10.5t4 -34.5l100 -255l80 193l-21 53q-12 32 -24.5 42.5t-33.5 11.5l-14 1l-3 6h244l-2 -6l-17 -1q-28 -2 -33 -11.5t4 -33.5l101 -250l58 162q26 74 18 100t-60 32l-14 2l-3 6h177l-3 -6
l-15 -2q-34 -2 -46.5 -22.5t-43.5 -112.5l-106 -294h-27l-130 312l-128 -312h-27z" />
    <glyph glyph-name="x" unicode="x" horiz-adv-x="484" 
d="M4 6l20 3q34 6 57 26.5t74 88.5l45 60l-102 160q-29 41 -46.5 57.5t-37.5 18.5l-13 1l-3 6h251l-3 -6l-20 -2q-16 -2 -21 -10t-0.5 -20t17.5 -31l60 -94h1l36 51q31 43 39.5 64t-1 29.5t-41.5 10.5l-18 2l-3 6h181l-3 -6l-21 -3q-32 -6 -56.5 -27.5t-74.5 -87.5l-33 -46
l113 -174q47 -72 79 -76l13 -1l4 -6h-247l2 6l18 2q17 1 22 9t1 20t-17 31l-70 109h-1l-47 -66q-23 -32 -34 -51t-10 -30.5t11 -16t33 -5.5l20 -2l3 -6h-180z" />
    <glyph glyph-name="y" unicode="y" horiz-adv-x="478" 
d="M95 -256q-27 0 -47.5 16.5t-20.5 44.5q0 23 16.5 40t41.5 17q29 0 45.5 -16.5t20.5 -40.5q19 3 30.5 21t27.5 61l37 104h-13l-166 371q-16 37 -25.5 46.5t-33.5 11.5l-16 1l-3 6h251l-3 -6l-17 -1q-30 -2 -36 -12t5 -36l106 -246l61 170q27 75 19.5 96t-59.5 27l-14 2
l-3 6h177l-3 -6l-16 -2q-32 -2 -45.5 -22t-46.5 -110l-106 -287l-41 -122q-22 -69 -51.5 -101.5t-71.5 -32.5z" />
    <glyph glyph-name="z" unicode="z" horiz-adv-x="438" 
d="M19 4l253 413l-45 -1q-70 -2 -104.5 -28t-60.5 -84l-19 -41h-5v164h368v-4l-259 -412l45 -1q138 4 203 129l14 27h5l-30 -166h-365v4z" />
    <glyph glyph-name="braceleft" unicode="{" horiz-adv-x="320" 
d="M308 -267q-95 8 -160 55t-65 112q0 40 24.5 111t24.5 95q0 39 -31 56t-105 23l-2 5l2 6q69 7 102.5 23.5t33.5 55.5q0 25 -24.5 96t-24.5 110q0 65 65 112t160 55l3 -6q-138 -19 -138 -100q0 -31 24.5 -106t24.5 -112q0 -58 -46.5 -90t-149.5 -42v-2q103 -11 149.5 -42.5
t46.5 -89.5q0 -37 -24.5 -112t-24.5 -106q0 -82 138 -101z" />
    <glyph glyph-name="bar" unicode="|" horiz-adv-x="153" 
d="M72 630h9v-877h-9v877z" />
    <glyph glyph-name="braceright" unicode="}" horiz-adv-x="320" 
d="M-7 -261q138 19 138 101q0 31 -24.5 106t-24.5 112q0 58 46.5 89.5t149.5 42.5v2q-103 10 -149.5 42t-46.5 90q0 37 24.5 112t24.5 106q0 81 -138 100l3 6q95 -8 160 -55t65 -112q0 -39 -24.5 -110t-24.5 -96q0 -39 33.5 -55.5t102.5 -23.5l2 -6l-2 -5q-74 -6 -105 -23
t-31 -56q0 -24 24.5 -95t24.5 -111q0 -65 -65 -112t-160 -55z" />
    <glyph glyph-name="asciitilde" unicode="~" horiz-adv-x="390" 
d="M274 146q-33 0 -100.5 31.5t-87.5 31.5q-13 0 -20 -2t-14 -14.5t-9 -37.5h-6q6 71 22.5 97t56.5 26q33 0 100.5 -31t86.5 -31q14 0 21 2.5t14.5 14.5t9.5 36h5q-6 -70 -22.5 -96.5t-56.5 -26.5z" />
    <glyph glyph-name="nbspace" unicode="&#xa0;" horiz-adv-x="130" 
 />
    <glyph glyph-name="exclamdown" unicode="&#xa1;" horiz-adv-x="269" 
d="M134 504q-28 0 -47 19t-19 46t19.5 47t46.5 20q29 0 48.5 -20t19.5 -47t-19.5 -46t-48.5 -19zM133 -16q-42 0 -54 18t-7 48l57 380q0 3 2.5 4.5t5 0t2.5 -4.5l57 -380q5 -30 -7 -48t-54 -18h-2z" />
    <glyph glyph-name="cent" unicode="&#xa2;" horiz-adv-x="429" 
d="M313 414q-24 18 -51 18q-54 0 -87 -51.5t-33 -137.5q0 -126 79 -170zM199 -13q-78 10 -129 70t-51 144q0 103 66 172.5t170 69.5q29 0 64 -7l44 167h10l-46 -170q39 -12 63 -35.5t24 -53.5q0 -26 -17 -43.5t-42 -17.5q-21 0 -36 12t-20 31l-69 -256q26 -15 60 -15
q43 0 72.5 18t52.5 60l8 -2q-68 -146 -197 -146q-11 0 -18 1l-38 -142h-9z" />
    <glyph glyph-name="sterling" unicode="&#xa3;" horiz-adv-x="553" 
d="M186 58q-67 42 -93 48q-11 3 -22 3q-27 0 -43.5 -14.5t-16.5 -40.5t18.5 -41t47.5 -15q59 0 109 60zM63 299l3 10h99q-23 57 -23 99q0 95 74.5 159t183.5 64q60 0 92.5 -22.5t32.5 -65.5q0 -24 -19 -42.5t-45 -18.5q-45 0 -58.5 43.5t12.5 75.5q-14 17 -46 17
q-46 0 -76 -33.5t-30 -96.5q0 -24 11 -82.5t13 -96.5h125l3 -10h-127v-20q0 -68 -43 -151q9 -3 37 -12t41.5 -13t35.5 -9.5t39.5 -8t33.5 -2.5q44 0 64 24.5t28 96.5h9q-2 -87 -46.5 -151.5t-110.5 -64.5q-35 0 -70.5 11t-56 21.5t-54.5 31.5q-54 -64 -118 -64
q-35 0 -55.5 19.5t-20.5 49.5q0 40 33.5 67.5t89.5 27.5q43 0 97 -17q1 3 1 15q0 17 -6 37.5t-11 33t-18.5 41.5t-17.5 37h-106z" />
    <glyph glyph-name="currency" unicode="&#xa4;" horiz-adv-x="511" 
d="M305 -12q-91 0 -157.5 65t-84.5 175h-64l3 10h59q-3 31 -3 58q0 38 5 62h-64l3 10h63q23 119 105 190.5t179 71.5q71 0 110.5 -22.5t39.5 -65.5q0 -24 -18.5 -42t-45.5 -18q-45 0 -60 44t16 76q-1 1 -5 3.5t-7 4.5t-8 4t-11.5 3t-14.5 1q-66 0 -109.5 -69t-51.5 -181h188
l3 -10h-191q-1 -12 -1 -38q0 -40 6 -82h183l3 -10h-182q18 -79 64.5 -124t111.5 -45q48 0 81 19t59 64l7 -4q-74 -150 -211 -150z" />
    <glyph glyph-name="yen" unicode="&#xa5;" horiz-adv-x="625" 
d="M155 7l45 4q48 4 48 15v138h-187l3 10h184v120h-184l-3 10h180l-62 110l-62 110q-34 55 -53 72.5t-54 19.5l-21 2l-4 7h323l-3 -7l-24 -1q-41 -1 -48.5 -18.5t14.5 -55.5l126 -233h1l50 99q46 88 57.5 128.5t-3 57t-63.5 22.5l-22 3l-4 5h241l-3 -5l-22 -3
q-36 -7 -65.5 -35t-66.5 -101l-46 -88q-10 -18 -21.5 -41t-17.5 -36l-7 -12h188l-3 -10h-186v-120h186l3 -10h-189v-141q0 -9 58 -13l34 -3l3 -7h-323z" />
    <glyph glyph-name="section" unicode="&#xa7;" horiz-adv-x="407" 
d="M307 179q32 27 32 57q0 36 -28 60t-90 52q-96 48 -120 69q-32 -25 -32 -55q0 -37 27 -60t90 -53q88 -41 121 -70zM179 -44q-59 0 -94.5 20t-35.5 57q0 21 13.5 37t35.5 16q39 0 51 -32.5t-7 -70.5q21 -16 52 -16q34 0 57.5 23.5t23.5 49.5q0 35 -31 59t-94 53
q-68 32 -107 67t-39 86q0 69 91 116q-34 34 -34 79q0 60 51 99.5t114 39.5q60 0 94 -19t34 -56q0 -21 -15 -37t-37 -16q-39 0 -52 33.5t3 69.5q-21 16 -42 16q-34 0 -56 -23.5t-22 -49.5q0 -35 31 -59t94 -54q34 -16 54 -27.5t44.5 -30.5t36 -42t11.5 -50q0 -68 -91 -119
q34 -31 34 -79q0 -58 -52.5 -99t-115.5 -41z" />
    <glyph glyph-name="dieresis" unicode="&#xa8;" horiz-adv-x="392" 
d="M293 504q-27 0 -43 18.5t-16 40.5q0 24 15.5 42.5t43.5 18.5q29 0 44.5 -18.5t15.5 -42.5q0 -23 -16 -41t-44 -18zM99 504q-27 0 -43.5 18.5t-16.5 40.5q0 23 16.5 42t43.5 19q29 0 44.5 -18.5t15.5 -42.5q0 -23 -16 -41t-44 -18z" />
    <glyph glyph-name="copyright" unicode="&#xa9;" horiz-adv-x="704" 
d="M365 116q-97 0 -157 55t-60 138q0 85 60 141.5t162 56.5q62 0 97 -22l39 12l4 -120h-3l-62 102q-25 22 -75 22q-65 0 -101.5 -53t-36.5 -135q0 -85 39 -138t97 -53q48 0 78 23t55 70l19 34h3l-20 -106l-20 -4q-17 -9 -53 -16t-65 -7zM352 -5q131 0 224 93.5t93 224.5
q0 132 -93 225.5t-224 93.5t-224 -93.5t-93 -225.5q0 -131 93 -224.5t224 -93.5zM352 -14q-136 0 -231.5 95.5t-95.5 231.5q0 135 96 231.5t231 96.5t231 -96.5t96 -231.5q0 -136 -95.5 -231.5t-231.5 -95.5z" />
    <glyph glyph-name="ordfeminine" unicode="&#xaa;" horiz-adv-x="351" 
d="M155 334q25 0 54 29l5 111q-105 -26 -105 -87q0 -24 13 -38.5t33 -14.5zM95 281q-33 0 -55 21t-22 51q0 39 45 70.5t151 60.5v28q0 49 -22.5 74.5t-60.5 25.5q-16 0 -26.5 -4t-13.5 -8t-3 -7q0 -2 9 -18.5t9 -27.5q0 -17 -13.5 -29.5t-33.5 -12.5q-19 0 -32.5 11
t-13.5 28q0 36 62.5 64t120.5 28q117 0 111 -120l-6 -140q-1 -46 26 -46q18 0 36 20l4 -2q-45 -67 -92 -67q-55 0 -64 72h-1q-58 -72 -115 -72z" />
    <glyph glyph-name="guillemotleft" unicode="&#xab;" horiz-adv-x="448" 
d="M12 216v13l219 165l3 -2l-110 -171l110 -169l-3 -3zM208 216v13l225 176l3 -3l-117 -181l116 -179l-3 -3z" />
    <glyph glyph-name="registered" unicode="&#xae;" horiz-adv-x="704" 
d="M339 320q38 0 60 23t22 65t-28 64t-76 20l-25 -1v-161q28 -9 47 -10zM160 131l26 2q29 5 29 10v341q0 5 -35 8l-19 2l-2 6h172q171 0 171 -97q0 -32 -25.5 -58t-67.5 -36l75 -117q21 -34 36 -45t42 -15l7 -1l2 -6h-138l-5 11l-100 175q-28 8 -36 11v-181q0 -4 34 -8
l22 -2l2 -6h-192zM352 -5q131 0 224 93.5t93 224.5q0 132 -93 225.5t-224 93.5t-224 -93.5t-93 -225.5q0 -131 93 -224.5t224 -93.5zM352 -14q-136 0 -231.5 95.5t-95.5 231.5q0 135 96 231.5t231 96.5t231 -96.5t96 -231.5q0 -136 -95.5 -231.5t-231.5 -95.5z" />
    <glyph glyph-name="macron" unicode="&#xaf;" horiz-adv-x="369" 
d="M65 564h252l-13 -43h-252z" />
    <glyph glyph-name="degree" unicode="&#xb0;" horiz-adv-x="284" 
d="M142 397q51 0 82.5 33t31.5 83q0 49 -31.5 83.5t-82.5 34.5q-50 0 -81 -34.5t-31 -83.5q0 -50 30.5 -83t81.5 -33zM142 387q-55 0 -89.5 36.5t-34.5 89.5t34 90.5t90 37.5t90 -37.5t34 -90.5t-34 -89.5t-90 -36.5z" />
    <glyph glyph-name="plusminus" unicode="&#xb1;" horiz-adv-x="347" 
d="M40 6l27 1q48 1 48 15v433q0 9 -53 13l-23 1l-3 6h274l-3 -6l-27 -1q-42 -4 -46 -9q-2 -3 -2 -6v-433q0 -9 53 -13l23 -1l3 -6h-274z" />
    <glyph glyph-name="acute" unicode="&#xb4;" horiz-adv-x="400" 
d="M245 677h116l-213 -187h-5z" />
    <glyph glyph-name="paragraph" unicode="&#xb6;" horiz-adv-x="432" 
d="M372 248q-25 -4 -88 -4q-117 0 -188 49t-71 140q0 192 274 192h83v-657h-10v280z" />
    <glyph glyph-name="periodcentered" unicode="&#xb7;" horiz-adv-x="216" 
d="M107 166q-29 0 -48.5 20t-19.5 48q0 27 19.5 46t48.5 19q27 0 47 -20t20 -45q0 -28 -19.5 -48t-47.5 -20z" />
    <glyph glyph-name="cedilla" unicode="&#xb8;" horiz-adv-x="388" 
d="M95 -266q79 16 116 35.5t37 55.5q0 28 -24 41.5t-61 13.5q-41 0 -74 -12v6l112 121h10l-56 -62q65 14 113.5 -9.5t48.5 -66.5q0 -22 -9 -40t-28 -30.5t-36.5 -21.5t-48 -16.5t-48 -11t-50.5 -8.5z" />
    <glyph glyph-name="ordmasculine" unicode="&#xba;" horiz-adv-x="405" 
d="M200 284q40 0 62.5 48.5t22.5 120.5q0 116 -35 154q-19 20 -47 20q-43 0 -65 -47.5t-22 -121.5q0 -118 37 -155q19 -19 47 -19zM200 276q-84 0 -136.5 51.5t-52.5 125.5q0 76 55 129t138 53t135.5 -51.5t52.5 -125.5q0 -77 -53.5 -129.5t-138.5 -52.5z" />
    <glyph glyph-name="guillemotright" unicode="&#xbb;" horiz-adv-x="447" 
d="M215 52l109 169l-108 170l1 3l219 -165v-13l-219 -167zM13 42l116 179l-116 181l3 3l225 -176v-13l-225 -177z" />
    <glyph glyph-name="questiondown" unicode="&#xbf;" horiz-adv-x="321" 
d="M168 507q-29 0 -48 19t-19 46t19 46.5t48 19.5q28 0 47.5 -19.5t19.5 -46.5q0 -26 -19.5 -45.5t-47.5 -19.5zM229 -13q-90 0 -144 65.5t-54 149.5q0 50 16.5 74.5t61.5 42.5q32 12 44.5 17t27 13t19 15t4.5 17q0 19 -9.5 31.5t-33.5 32.5l6 4q34 -26 61.5 -62t27.5 -61
q0 -36 -26.5 -55t-86.5 -40q-56 -19 -77 -33t-21 -33q0 -33 38.5 -56.5t111.5 -23.5q48 0 82 12q20 -19 25 -55q2 -25 -15.5 -40t-57.5 -15z" />
    <glyph glyph-name="Agrave" unicode="&#xc0;" 
d="M180 269l-36 -101q-35 -101 -33 -122q1 -23 33 -31q14 -4 43 -7l20 -2l3 -6h-220l3 6l17 2q35 4 52 17.5t34.5 50.5t51.5 132l112 314l-11 32q55 16 85 88h18l172 -505q28 -80 46 -103.5t52 -25.5l28 -2l2 -6h-313l3 6l27 2q37 2 42.5 22.5t-11.5 68.5l-56 170h-164z
M341 279l-75 228h-1l-81 -228h157zM141 844h116l102 -187h-5z" />
    <glyph glyph-name="Aacute" unicode="&#xc1;" 
d="M180 269l-36 -101q-35 -101 -33 -122q1 -23 33 -31q14 -4 43 -7l20 -2l3 -6h-220l3 6l17 2q35 4 52 17.5t34.5 50.5t51.5 132l112 314l-11 32q55 16 85 88h18l172 -505q28 -80 46 -103.5t52 -25.5l28 -2l2 -6h-313l3 6l27 2q37 2 42.5 22.5t-11.5 68.5l-56 170h-164z
M341 279l-75 228h-1l-81 -228h157zM377 844h116l-213 -187h-5z" />
    <glyph glyph-name="Acircumflex" unicode="&#xc2;" 
d="M180 269l-36 -101q-35 -101 -33 -122q1 -23 33 -31q14 -4 43 -7l20 -2l3 -6h-220l3 6l17 2q35 4 52 17.5t34.5 50.5t51.5 132l112 314l-11 32q55 16 85 88h18l172 -505q28 -80 46 -103.5t52 -25.5l28 -2l2 -6h-313l3 6l27 2q37 2 42.5 22.5t-11.5 68.5l-56 170h-164z
M341 279l-75 228h-1l-81 -228h157zM331 844h4l145 -197h-6l-140 96h-2l-140 -96h-6z" />
    <glyph glyph-name="Atilde" unicode="&#xc3;" 
d="M180 269l-36 -101q-35 -101 -33 -122q1 -23 33 -31q14 -4 43 -7l20 -2l3 -6h-220l3 6l17 2q35 4 52 17.5t34.5 50.5t51.5 132l112 314l-11 32q55 16 85 88h18l172 -505q28 -80 46 -103.5t52 -25.5l28 -2l2 -6h-313l3 6l27 2q37 2 42.5 22.5t-11.5 68.5l-56 170h-164z
M341 279l-75 228h-1l-81 -228h157zM408 664q-33 0 -100.5 31.5t-87.5 31.5q-13 0 -20 -2t-14 -14.5t-9 -37.5h-6q6 71 22.5 97t56.5 26q33 0 100.5 -31t86.5 -31q14 0 21 2.5t14.5 14.5t9.5 36h5q-6 -70 -22.5 -96.5t-56.5 -26.5z" />
    <glyph glyph-name="Adieresis" unicode="&#xc4;" 
d="M180 269l-36 -101q-35 -101 -33 -122q1 -23 33 -31q14 -4 43 -7l20 -2l3 -6h-220l3 6l17 2q35 4 52 17.5t34.5 50.5t51.5 132l112 314l-11 32q55 16 85 88h18l172 -505q28 -80 46 -103.5t52 -25.5l28 -2l2 -6h-313l3 6l27 2q37 2 42.5 22.5t-11.5 68.5l-56 170h-164z
M341 279l-75 228h-1l-81 -228h157zM426 671q-27 0 -43 18.5t-16 40.5q0 24 15.5 42.5t43.5 18.5q29 0 44.5 -18.5t15.5 -42.5q0 -23 -16 -41t-44 -18zM232 671q-27 0 -43.5 18.5t-16.5 40.5q0 23 16.5 42t43.5 19q29 0 44.5 -18.5t15.5 -42.5q0 -23 -16 -41t-44 -18z" />
    <glyph glyph-name="Aring" unicode="&#xc5;" 
d="M326 622q36 0 57.5 23.5t21.5 57.5t-21.5 57.5t-57.5 23.5t-57.5 -23.5t-21.5 -57.5t21.5 -57.5t57.5 -23.5zM180 267l-36 -99q-35 -101 -33 -122q1 -23 33 -31q14 -4 43 -7l20 -2l3 -6h-220l3 6l17 2q22 3 34 7.5t23.5 13.5t23.5 34t24 55t33 90l147 412q-27 9 -42.5 32
t-15.5 51q0 38 24 64t65 26t65 -26t24 -64q0 -28 -14.5 -50.5t-40.5 -32.5l11 -32q11 -33 32.5 -96t38.5 -113l82 -242q28 -80 46 -103.5t52 -25.5l28 -2l2 -6h-313l3 6l27 2q37 2 42.5 22.5t-11.5 68.5l-55 168h-165zM341 279l-75 228h-1l-81 -228h157z" />
    <glyph glyph-name="AE" unicode="&#xc6;" horiz-adv-x="866" 
d="M375 278v323h-2l-175 -323h177zM-52 6l37 4q30 4 62.5 38.5t81.5 127.5l214 393q15 22 4.5 33.5t-60.5 13.5l-39 2l-3 7h539l10 -204h-6l-4 11q-28 102 -74 143t-134 39l-72 -1v-287h33q65 4 95.5 24t47.5 69l6 18l7 -1l-26 -239l-7 1l-1 18q-4 55 -30 74.5t-101 23.5
l-24 2v-302l83 -4q91 2 147 50.5t88 137.5l5 11h6l-28 -209h-531l3 6l50 4q48 4 48 17v238h-184l-55 -102q-29 -54 -36.5 -86.5t6 -48t47.5 -19.5l25 -3l3 -6h-236z" />
    <glyph glyph-name="Ccedilla" unicode="&#xc7;" horiz-adv-x="685" 
d="M388 -12q-161 0 -261 90.5t-100 229.5q0 143 100.5 237t271.5 94q95 0 161 -38l64 21l6 -201h-6l-101 177q-41 29 -126 29q-108 0 -169 -88t-61 -225q0 -142 65 -228.5t161 -86.5q80 0 131.5 37.5t90.5 112.5l31 59h6l-34 -177l-33 -5q-26 -12 -82 -24t-104 -14l-50 -55
q65 14 113.5 -9.5t48.5 -66.5q0 -22 -9 -40t-28 -30.5t-36.5 -21.5t-48 -16.5t-48 -11t-50.5 -8.5l-2 5q79 16 116 35.5t37 55.5q0 28 -24 41.5t-61 13.5q-41 0 -74 -12v6l106 114h-1z" />
    <glyph glyph-name="Egrave" unicode="&#xc8;" horiz-adv-x="609" 
d="M20 6l35 4q49 6 49 17v574q0 4 -3.5 6t-16 4.5t-37.5 4.5l-26 3l-3 6h510l10 -204h-6l-4 11q-28 100 -78 142t-140 40l-77 -1v-287h43q67 4 99.5 24t48.5 69l6 18l7 -1l-26 -239l-7 1l-1 18q-4 54 -32 74t-104 24l-34 2v-302l98 -4q91 2 147 50.5t88 137.5l5 11h6
l-28 -209h-532zM140 844h116l102 -187h-5z" />
    <glyph glyph-name="Eacute" unicode="&#xc9;" horiz-adv-x="609" 
d="M20 6l35 4q49 6 49 17v574q0 4 -3.5 6t-16 4.5t-37.5 4.5l-26 3l-3 6h510l10 -204h-6l-4 11q-28 100 -78 142t-140 40l-77 -1v-287h43q67 4 99.5 24t48.5 69l6 18l7 -1l-26 -239l-7 1l-1 18q-4 54 -32 74t-104 24l-34 2v-302l98 -4q91 2 147 50.5t88 137.5l5 11h6
l-28 -209h-532zM356 844h116l-213 -187h-5z" />
    <glyph glyph-name="Ecircumflex" unicode="&#xca;" horiz-adv-x="609" 
d="M20 6l35 4q49 6 49 17v574q0 4 -3.5 6t-16 4.5t-37.5 4.5l-26 3l-3 6h510l10 -204h-6l-4 11q-28 100 -78 142t-140 40l-77 -1v-287h43q67 4 99.5 24t48.5 69l6 18l7 -1l-26 -239l-7 1l-1 18q-4 54 -32 74t-104 24l-34 2v-302l98 -4q91 2 147 50.5t88 137.5l5 11h6
l-28 -209h-532zM309 844h4l145 -197h-6l-140 96h-2l-140 -96h-6z" />
    <glyph glyph-name="Edieresis" unicode="&#xcb;" horiz-adv-x="609" 
d="M20 6l35 4q49 6 49 17v574q0 4 -3.5 6t-16 4.5t-37.5 4.5l-26 3l-3 6h510l10 -204h-6l-4 11q-28 100 -78 142t-140 40l-77 -1v-287h43q67 4 99.5 24t48.5 69l6 18l7 -1l-26 -239l-7 1l-1 18q-4 54 -32 74t-104 24l-34 2v-302l98 -4q91 2 147 50.5t88 137.5l5 11h6
l-28 -209h-532zM405 671q-27 0 -43 18.5t-16 40.5q0 24 15.5 42.5t43.5 18.5q29 0 44.5 -18.5t15.5 -42.5q0 -23 -16 -41t-44 -18zM211 671q-27 0 -43.5 18.5t-16.5 40.5q0 23 16.5 42t43.5 19q29 0 44.5 -18.5t15.5 -42.5q0 -23 -16 -41t-44 -18z" />
    <glyph glyph-name="Igrave" unicode="&#xcc;" horiz-adv-x="361" 
d="M30 6l39 4q47 4 47 17v574q0 4 -3.5 6t-16 4.5t-37.5 4.5l-29 3l-3 6h307l-3 -6l-39 -4q-47 -4 -47 -17v-574q0 -4 3.5 -6t16 -4.5t37.5 -4.5l28 -3l3 -6h-306zM14 844h116l102 -187h-5z" />
    <glyph glyph-name="Iacute" unicode="&#xcd;" horiz-adv-x="361" 
d="M30 6l39 4q47 4 47 17v574q0 4 -3.5 6t-16 4.5t-37.5 4.5l-29 3l-3 6h307l-3 -6l-39 -4q-47 -4 -47 -17v-574q0 -4 3.5 -6t16 -4.5t37.5 -4.5l28 -3l3 -6h-306zM235 844h116l-213 -187h-5z" />
    <glyph glyph-name="Icircumflex" unicode="&#xce;" horiz-adv-x="361" 
d="M30 6l39 4q47 4 47 17v574q0 4 -3.5 6t-16 4.5t-37.5 4.5l-29 3l-3 6h307l-3 -6l-39 -4q-47 -4 -47 -17v-574q0 -4 3.5 -6t16 -4.5t37.5 -4.5l28 -3l3 -6h-306zM180 844h4l145 -197h-6l-140 96h-2l-140 -96h-6z" />
    <glyph glyph-name="Idieresis" unicode="&#xcf;" horiz-adv-x="361" 
d="M30 6l39 4q47 4 47 17v574q0 4 -3.5 6t-16 4.5t-37.5 4.5l-29 3l-3 6h307l-3 -6l-39 -4q-47 -4 -47 -17v-574q0 -4 3.5 -6t16 -4.5t37.5 -4.5l28 -3l3 -6h-306zM279 671q-27 0 -43 18.5t-16 40.5q0 24 15.5 42.5t43.5 18.5q29 0 44.5 -18.5t15.5 -42.5q0 -23 -16 -41
t-44 -18zM85 671q-27 0 -43.5 18.5t-16.5 40.5q0 23 16.5 42t43.5 19q29 0 44.5 -18.5t15.5 -42.5q0 -23 -16 -41t-44 -18z" />
    <glyph glyph-name="Eth" unicode="&#xd0;" horiz-adv-x="688" 
d="M360 321l3 -14h-130v-278l67 -18q106 0 165 83.5t59 204.5q0 147 -59 231t-179 84h-53v-293h127zM15 307l3 14h86v280q0 9 -57 15l-33 3l-3 6q57 1 153 1h147q172 2 262 -80t90 -227q0 -135 -102.5 -227t-267.5 -92h-283l3 6l44 4q47 5 47 17v280h-89z" />
    <glyph glyph-name="Ntilde" unicode="&#xd1;" horiz-adv-x="699" 
d="M127 535h-1l1 -491q0 -31 90 -37l19 -1l3 -6h-221l3 6l20 1q73 5 73 45l3 494q-47 63 -108 72l-11 1l-2 6h230l356 -427h1l-1 382q0 32 -90 38l-18 1l-3 6h220l-3 -6l-20 -1q-73 -5 -73 -46l-4 -578h-10zM450 664q-33 0 -100.5 31.5t-87.5 31.5q-13 0 -20 -2t-14 -14.5
t-9 -37.5h-6q6 71 22.5 97t56.5 26q33 0 100.5 -31t86.5 -31q14 0 21 2.5t14.5 14.5t9.5 36h5q-6 -70 -22.5 -96.5t-56.5 -26.5z" />
    <glyph glyph-name="Ograve" unicode="&#xd2;" horiz-adv-x="739" 
d="M373 -1q198 0 198 314q0 148 -54 230.5t-150 82.5q-200 0 -200 -314q0 -150 54.5 -231.5t151.5 -81.5zM364 -12q-148 0 -242.5 89.5t-94.5 234.5q0 131 103 228.5t245 97.5q148 0 242.5 -91t94.5 -236q0 -130 -103 -226.5t-245 -96.5zM191 844h116l102 -187h-5z" />
    <glyph glyph-name="Oacute" unicode="&#xd3;" horiz-adv-x="739" 
d="M373 -1q198 0 198 314q0 148 -54 230.5t-150 82.5q-200 0 -200 -314q0 -150 54.5 -231.5t151.5 -81.5zM364 -12q-148 0 -242.5 89.5t-94.5 234.5q0 131 103 228.5t245 97.5q148 0 242.5 -91t94.5 -236q0 -130 -103 -226.5t-245 -96.5zM432 844h116l-213 -187h-5z" />
    <glyph glyph-name="Ocircumflex" unicode="&#xd4;" horiz-adv-x="739" 
d="M373 -1q198 0 198 314q0 148 -54 230.5t-150 82.5q-200 0 -200 -314q0 -150 54.5 -231.5t151.5 -81.5zM364 -12q-148 0 -242.5 89.5t-94.5 234.5q0 131 103 228.5t245 97.5q148 0 242.5 -91t94.5 -236q0 -130 -103 -226.5t-245 -96.5zM369 844h4l145 -197h-6l-140 96h-2
l-140 -96h-6z" />
    <glyph glyph-name="Otilde" unicode="&#xd5;" horiz-adv-x="739" 
d="M373 -1q198 0 198 314q0 148 -54 230.5t-150 82.5q-200 0 -200 -314q0 -150 54.5 -231.5t151.5 -81.5zM364 -12q-148 0 -242.5 89.5t-94.5 234.5q0 131 103 228.5t245 97.5q148 0 242.5 -91t94.5 -236q0 -130 -103 -226.5t-245 -96.5zM457 664q-33 0 -100.5 31.5
t-87.5 31.5q-13 0 -20 -2t-14 -14.5t-9 -37.5h-6q6 71 22.5 97t56.5 26q33 0 100.5 -31t86.5 -31q14 0 21 2.5t14.5 14.5t9.5 36h5q-6 -70 -22.5 -96.5t-56.5 -26.5z" />
    <glyph glyph-name="Odieresis" unicode="&#xd6;" horiz-adv-x="739" 
d="M373 -1q198 0 198 314q0 148 -54 230.5t-150 82.5q-200 0 -200 -314q0 -150 54.5 -231.5t151.5 -81.5zM364 -12q-148 0 -242.5 89.5t-94.5 234.5q0 131 103 228.5t245 97.5q148 0 242.5 -91t94.5 -236q0 -130 -103 -226.5t-245 -96.5zM466 671q-27 0 -43 18.5t-16 40.5
q0 24 15.5 42.5t43.5 18.5q29 0 44.5 -18.5t15.5 -42.5q0 -23 -16 -41t-44 -18zM272 671q-27 0 -43.5 18.5t-16.5 40.5q0 23 16.5 42t43.5 19q29 0 44.5 -18.5t15.5 -42.5q0 -23 -16 -41t-44 -18z" />
    <glyph glyph-name="Oslash" unicode="&#xd8;" horiz-adv-x="739" 
d="M508 555q-54 71 -141 71q-200 0 -200 -314q0 -158 61 -241zM235 63q52 -64 138 -64q198 0 198 314q0 151 -57 233zM544 599q79 -42 123.5 -116.5t44.5 -171.5q0 -130 -103 -226.5t-245 -96.5q-85 0 -154 31l-54 -93h-11l56 97q-82 40 -128 114.5t-46 174.5
q0 131 103 228.5t245 97.5q88 0 161 -35l49 85h11z" />
    <glyph glyph-name="Ugrave" unicode="&#xd9;" horiz-adv-x="697" 
d="M361 -16q-137 0 -198.5 52t-61.5 167v400q0 5 -9.5 7.5t-46.5 5.5l-34 3l-3 6h316l-3 -6l-44 -4q-47 -4 -47 -15v-368q0 -102 44 -151t134 -49q183 0 183 216l-1 332q0 33 -90 39h-19l-3 6h220l-3 -6h-19q-39 -3 -56 -16.5t-17 -30.5l-2 -326q-2 -130 -58.5 -196
t-181.5 -66zM194 844h116l102 -187h-5z" />
    <glyph glyph-name="Uacute" unicode="&#xda;" horiz-adv-x="697" 
d="M361 -16q-137 0 -198.5 52t-61.5 167v400q0 5 -9.5 7.5t-46.5 5.5l-34 3l-3 6h316l-3 -6l-44 -4q-47 -4 -47 -15v-368q0 -102 44 -151t134 -49q183 0 183 216l-1 332q0 33 -90 39h-19l-3 6h220l-3 -6h-19q-39 -3 -56 -16.5t-17 -30.5l-2 -326q-2 -130 -58.5 -196
t-181.5 -66zM440 844h116l-213 -187h-5z" />
    <glyph glyph-name="Ucircumflex" unicode="&#xdb;" horiz-adv-x="697" 
d="M361 -16q-137 0 -198.5 52t-61.5 167v400q0 5 -9.5 7.5t-46.5 5.5l-34 3l-3 6h316l-3 -6l-44 -4q-47 -4 -47 -15v-368q0 -102 44 -151t134 -49q183 0 183 216l-1 332q0 33 -90 39h-19l-3 6h220l-3 -6h-19q-39 -3 -56 -16.5t-17 -30.5l-2 -326q-2 -130 -58.5 -196
t-181.5 -66zM378 844h4l145 -197h-6l-140 96h-2l-140 -96h-6z" />
    <glyph glyph-name="Udieresis" unicode="&#xdc;" horiz-adv-x="697" 
d="M361 -16q-137 0 -198.5 52t-61.5 167v400q0 5 -9.5 7.5t-46.5 5.5l-34 3l-3 6h316l-3 -6l-44 -4q-47 -4 -47 -15v-368q0 -102 44 -151t134 -49q183 0 183 216l-1 332q0 33 -90 39h-19l-3 6h220l-3 -6h-19q-39 -3 -56 -16.5t-17 -30.5l-2 -326q-2 -130 -58.5 -196
t-181.5 -66zM487 671q-27 0 -43 18.5t-16 40.5q0 24 15.5 42.5t43.5 18.5q29 0 44.5 -18.5t15.5 -42.5q0 -23 -16 -41t-44 -18zM293 671q-27 0 -43.5 18.5t-16.5 40.5q0 23 16.5 42t43.5 19q29 0 44.5 -18.5t15.5 -42.5q0 -23 -16 -41t-44 -18z" />
    <glyph glyph-name="Yacute" unicode="&#xdd;" horiz-adv-x="647" 
d="M168 6l44 4q47 4 47 17v259l-134 237q-33 57 -49.5 73.5t-49.5 20.5l-21 2l-3 6h310l-3 -6l-17 -1q-46 -4 -55 -18.5t11 -45.5l132 -236h2l75 140q23 43 33.5 66t15.5 42.5t-2.5 28t-22 13.5t-42.5 8l-22 3l-3 6h228l-3 -6l-28 -3q-39 -4 -65.5 -32.5t-78.5 -129.5
l-79 -146v-284q0 -4 3.5 -6t16 -4.5t37.5 -4.5l33 -3l3 -6h-316zM410 844h116l-213 -187h-5z" />
    <glyph glyph-name="Thorn" unicode="&#xde;" horiz-adv-x="593" 
d="M291 171q60 0 98 41.5t38 110.5q0 157 -145 158l-44 -2v-302q22 -6 53 -6zM18 8l44 4q47 4 47 16v572q0 5 -10 7.5t-47 6.5l-33 3l-3 8h315l-3 -8l-43 -4q-47 -4 -47 -16v-106h62q264 0 264 -157q0 -79 -74 -127.5t-196 -48.5q-38 0 -56 5v-138q0 -11 57 -14l43 -3l3 -8
h-326z" />
    <glyph glyph-name="germandbls" unicode="&#xdf;" horiz-adv-x="555" 
d="M357 420q74 -35 125 -102t51 -140q0 -74 -53.5 -131.5t-122.5 -57.5q-51 0 -81.5 22t-30.5 56q0 26 17 43.5t42 17.5q34 0 47 -23t3.5 -48.5t-33.5 -31.5q7 -26 45 -26q33 0 52.5 25t19.5 75q0 81 -50 161.5t-144 134.5v6q67 17 95.5 47t28.5 92q0 48 -23.5 80t-60.5 32
q-49 0 -68 -31.5t-19 -114.5v-506h-176l3 9l18 1q37 4 40 8q2 2 2 6v352l-79 1l23 50l56 -1l3 56q6 82 64.5 131.5t138.5 49.5q89 0 138 -34.5t49 -94.5q0 -91 -120 -114z" />
    <glyph glyph-name="agrave" unicode="&#xe0;" horiz-adv-x="449" 
d="M195 54q35 0 67 33l7 153q-76 -17 -105.5 -45t-29.5 -69q0 -32 17 -52t44 -20zM345 -11q-70 0 -81 86l-1 1q-38 -42 -69.5 -64t-67.5 -22q-43 0 -73 28.5t-30 66.5q0 55 53.5 93t191.5 73l1 34q2 62 -24.5 96.5t-75.5 34.5q-26 0 -44 -8.5t-18 -17.5q0 -2 15 -23t15 -36
q0 -22 -16 -37t-42 -15q-24 0 -40 13t-16 35q0 45 74 80t143 35q82 0 114.5 -35t28.5 -120l-9 -187q-2 -27 8.5 -41t28.5 -14q19 0 42 29l6 -3q-64 -82 -114 -82zM62 677h116l102 -187h-5z" />
    <glyph glyph-name="aacute" unicode="&#xe1;" horiz-adv-x="449" 
d="M195 54q35 0 67 33l7 153q-76 -17 -105.5 -45t-29.5 -69q0 -32 17 -52t44 -20zM345 -11q-70 0 -81 86l-1 1q-38 -42 -69.5 -64t-67.5 -22q-43 0 -73 28.5t-30 66.5q0 55 53.5 93t191.5 73l1 34q2 62 -24.5 96.5t-75.5 34.5q-26 0 -44 -8.5t-18 -17.5q0 -2 15 -23t15 -36
q0 -22 -16 -37t-42 -15q-24 0 -40 13t-16 35q0 45 74 80t143 35q82 0 114.5 -35t28.5 -120l-9 -187q-2 -27 8.5 -41t28.5 -14q19 0 42 29l6 -3q-64 -82 -114 -82zM278 677h116l-213 -187h-5z" />
    <glyph glyph-name="acircumflex" unicode="&#xe2;" horiz-adv-x="449" 
d="M195 54q35 0 67 33l7 153q-76 -17 -105.5 -45t-29.5 -69q0 -32 17 -52t44 -20zM345 -11q-70 0 -81 86l-1 1q-38 -42 -69.5 -64t-67.5 -22q-43 0 -73 28.5t-30 66.5q0 55 53.5 93t191.5 73l1 34q2 62 -24.5 96.5t-75.5 34.5q-26 0 -44 -8.5t-18 -17.5q0 -2 15 -23t15 -36
q0 -22 -16 -37t-42 -15q-24 0 -40 13t-16 35q0 45 74 80t143 35q82 0 114.5 -35t28.5 -120l-9 -187q-2 -27 8.5 -41t28.5 -14q19 0 42 29l6 -3q-64 -82 -114 -82zM216 677h4l145 -197h-6l-140 96h-2l-140 -96h-6z" />
    <glyph glyph-name="atilde" unicode="&#xe3;" horiz-adv-x="449" 
d="M195 54q35 0 67 33l7 153q-76 -17 -105.5 -45t-29.5 -69q0 -32 17 -52t44 -20zM345 -11q-70 0 -81 86l-1 1q-38 -42 -69.5 -64t-67.5 -22q-43 0 -73 28.5t-30 66.5q0 55 53.5 93t191.5 73l1 34q2 62 -24.5 96.5t-75.5 34.5q-26 0 -44 -8.5t-18 -17.5q0 -2 15 -23t15 -36
q0 -22 -16 -37t-42 -15q-24 0 -40 13t-16 35q0 45 74 80t143 35q82 0 114.5 -35t28.5 -120l-9 -187q-2 -27 8.5 -41t28.5 -14q19 0 42 29l6 -3q-64 -82 -114 -82zM297 497q-33 0 -100.5 31.5t-87.5 31.5q-13 0 -20 -2t-14 -14.5t-9 -37.5h-6q6 71 22.5 97t56.5 26
q33 0 100.5 -31t86.5 -31q14 0 21 2.5t14.5 14.5t9.5 36h5q-6 -70 -22.5 -96.5t-56.5 -26.5z" />
    <glyph glyph-name="adieresis" unicode="&#xe4;" horiz-adv-x="449" 
d="M195 54q35 0 67 33l7 153q-76 -17 -105.5 -45t-29.5 -69q0 -32 17 -52t44 -20zM345 -11q-70 0 -81 86l-1 1q-38 -42 -69.5 -64t-67.5 -22q-43 0 -73 28.5t-30 66.5q0 55 53.5 93t191.5 73l1 34q2 62 -24.5 96.5t-75.5 34.5q-26 0 -44 -8.5t-18 -17.5q0 -2 15 -23t15 -36
q0 -22 -16 -37t-42 -15q-24 0 -40 13t-16 35q0 45 74 80t143 35q82 0 114.5 -35t28.5 -120l-9 -187q-2 -27 8.5 -41t28.5 -14q19 0 42 29l6 -3q-64 -82 -114 -82zM310 504q-27 0 -43 18.5t-16 40.5q0 24 15.5 42.5t43.5 18.5q29 0 44.5 -18.5t15.5 -42.5q0 -23 -16 -41
t-44 -18zM116 504q-27 0 -43.5 18.5t-16.5 40.5q0 23 16.5 42t43.5 19q29 0 44.5 -18.5t15.5 -42.5q0 -23 -16 -41t-44 -18z" />
    <glyph glyph-name="aring" unicode="&#xe5;" horiz-adv-x="449" 
d="M195 54q35 0 67 33l7 153q-76 -17 -105.5 -45t-29.5 -69q0 -32 17 -52t44 -20zM345 -11q-70 0 -81 86l-1 1q-38 -42 -69.5 -64t-67.5 -22q-43 0 -73 28.5t-30 66.5q0 55 53.5 93t191.5 73l1 34q2 62 -24.5 96.5t-75.5 34.5q-26 0 -44 -8.5t-18 -17.5q0 -2 15 -23t15 -36
q0 -22 -16 -37t-42 -15q-24 0 -40 13t-16 35q0 45 74 80t143 35q82 0 114.5 -35t28.5 -120l-9 -187q-2 -27 8.5 -41t28.5 -14q19 0 42 29l6 -3q-64 -82 -114 -82zM209 507q36 0 57.5 23.5t21.5 57.5t-21.5 57.5t-57.5 23.5t-57.5 -23.5t-21.5 -57.5t21.5 -57.5t57.5 -23.5z
M209 498q-41 0 -65 26t-24 64t24 64t65 26t65 -26t24 -64t-24 -64t-65 -26z" />
    <glyph glyph-name="ae" unicode="&#xe6;" horiz-adv-x="688" 
d="M553 300q0 54 -16.5 92.5t-54.5 38.5q-34 0 -61 -37.5t-35 -95.5zM191 52q40 0 92 55q-16 37 -16 116q0 11 1 16q-77 -19 -105.5 -47t-28.5 -70q0 -29 17.5 -49.5t39.5 -20.5zM125 -11q-42 0 -72 29t-30 66q0 55 53.5 93.5t191.5 73.5l1 34q2 62 -24.5 96.5t-75.5 34.5
q-26 0 -44 -8.5t-18 -17.5q0 -2 15 -23t15 -36q0 -22 -16 -37t-42 -15q-24 0 -40 13t-16 35q0 45 72.5 80t146.5 35q77 0 104 -52q59 53 147 53q81 0 126 -41.5t45 -99.5q0 -3 -2 -17q-88 0 -127 1q-40 0 -94.5 1t-56.5 1q-1 -4 -1 -48q0 -84 41.5 -133.5t110.5 -49.5
q44 0 75 18t54 61l7 -4q-67 -143 -202 -143q-65 0 -112 29.5t-68 80.5q-93 -110 -164 -110z" />
    <glyph glyph-name="ccedilla" unicode="&#xe7;" horiz-adv-x="429" 
d="M226 -15q-90 0 -148.5 61.5t-58.5 154.5q0 103 66 172t170 69q67 0 113 -27.5t46 -70.5q0 -26 -17 -43.5t-42 -17.5q-26 0 -43 16.5t-17 40.5q0 18 12.5 38t12.5 22q0 12 -17.5 21.5t-40.5 9.5q-54 0 -87 -51t-33 -137q0 -90 39.5 -139t108.5 -49q43 0 72.5 18t52.5 60
l7 -3q-62 -133 -175 -144l-48 -53q65 14 113.5 -9.5t48.5 -66.5q0 -22 -9 -40t-28 -30.5t-36.5 -21.5t-48 -16.5t-48 -11t-50.5 -8.5l-2 5q79 16 116 35.5t37 55.5q0 28 -24.5 41.5t-60.5 13.5q-41 0 -74 -12v6l103 111h-10z" />
    <glyph glyph-name="egrave" unicode="&#xe8;" horiz-adv-x="445" 
d="M310 299q0 54 -16.5 93t-54.5 39q-34 0 -60.5 -37.5t-34.5 -95.5zM227 -15q-90 0 -149 63t-59 157q0 100 66.5 169t164.5 69q81 0 126 -41.5t45 -99.5q0 -3 -2 -17q-89 0 -128 1q-40 0 -94 1t-55 1q-2 -9 -2 -48q0 -83 42 -134t110 -51q87 0 129 78l7 -3
q-68 -145 -201 -145zM71 677h116l102 -187h-5z" />
    <glyph glyph-name="eacute" unicode="&#xe9;" horiz-adv-x="445" 
d="M310 299q0 54 -16.5 93t-54.5 39q-34 0 -60.5 -37.5t-34.5 -95.5zM227 -15q-90 0 -149 63t-59 157q0 100 66.5 169t164.5 69q81 0 126 -41.5t45 -99.5q0 -3 -2 -17q-89 0 -128 1q-40 0 -94 1t-55 1q-2 -9 -2 -48q0 -83 42 -134t110 -51q87 0 129 78l7 -3
q-68 -145 -201 -145zM296 677h116l-213 -187h-5z" />
    <glyph glyph-name="ecircumflex" unicode="&#xea;" horiz-adv-x="445" 
d="M310 299q0 54 -16.5 93t-54.5 39q-34 0 -60.5 -37.5t-34.5 -95.5zM227 -15q-90 0 -149 63t-59 157q0 100 66.5 169t164.5 69q81 0 126 -41.5t45 -99.5q0 -3 -2 -17q-89 0 -128 1q-40 0 -94 1t-55 1q-2 -9 -2 -48q0 -83 42 -134t110 -51q87 0 129 78l7 -3
q-68 -145 -201 -145zM239 677h4l145 -197h-6l-140 96h-2l-140 -96h-6z" />
    <glyph glyph-name="edieresis" unicode="&#xeb;" horiz-adv-x="445" 
d="M310 299q0 54 -16.5 93t-54.5 39q-34 0 -60.5 -37.5t-34.5 -95.5zM227 -15q-90 0 -149 63t-59 157q0 100 66.5 169t164.5 69q81 0 126 -41.5t45 -99.5q0 -3 -2 -17q-89 0 -128 1q-40 0 -94 1t-55 1q-2 -9 -2 -48q0 -83 42 -134t110 -51q87 0 129 78l7 -3
q-68 -145 -201 -145zM334 504q-27 0 -43 18.5t-16 40.5q0 24 15.5 42.5t43.5 18.5q29 0 44.5 -18.5t15.5 -42.5q0 -23 -16 -41t-44 -18zM140 504q-27 0 -43.5 18.5t-16.5 40.5q0 23 16.5 42t43.5 19q29 0 44.5 -18.5t15.5 -42.5q0 -23 -16 -41t-44 -18z" />
    <glyph glyph-name="igrave" unicode="&#xec;" horiz-adv-x="263" 
d="M19 6l15 1q14 1 20 2t12.5 2.5t8 4.5t1.5 7v280q0 46 -7 59.5t-34 19.5l-23 5l1 4l176 48v-418q0 -6 9 -8.5t42 -5.5l11 -1l3 -6h-238zM-29 677h116l102 -187h-5z" />
    <glyph glyph-name="iacute" unicode="&#xed;" horiz-adv-x="263" 
d="M19 6l15 1q14 1 20 2t12.5 2.5t8 4.5t1.5 7v280q0 46 -7 59.5t-34 19.5l-23 5l1 4l176 48v-418q0 -6 9 -8.5t42 -5.5l11 -1l3 -6h-238zM182 677h116l-213 -187h-5z" />
    <glyph glyph-name="icircumflex" unicode="&#xee;" horiz-adv-x="263" 
d="M134 677h4l135 -197h-6l-130 95h-2l-131 -95h-5zM19 6l15 1q14 1 20 2t12.5 2.5t8 4.5t1.5 7v280q0 46 -7 59.5t-34 19.5l-23 5l1 4l176 48v-418q0 -6 9 -8.5t42 -5.5l11 -1l3 -6h-238z" />
    <glyph glyph-name="idieresis" unicode="&#xef;" horiz-adv-x="263" 
d="M19 6l15 1q14 1 20 2t12.5 2.5t8 4.5t1.5 7v280q0 46 -7 59.5t-34 19.5l-23 5l1 4l176 48v-418q0 -6 9 -8.5t42 -5.5l11 -1l3 -6h-238zM234 504q-27 0 -43 18.5t-16 40.5q0 24 15.5 42.5t43.5 18.5q29 0 44.5 -18.5t15.5 -42.5q0 -23 -16 -41t-44 -18zM40 504
q-27 0 -43.5 18.5t-16.5 40.5q0 23 16.5 42t43.5 19q29 0 44.5 -18.5t15.5 -42.5q0 -23 -16 -41t-44 -18z" />
    <glyph glyph-name="eth" unicode="&#xf0;" horiz-adv-x="507" 
d="M253 -3q109 0 109 215q0 103 -30 164t-81 61q-50 0 -78 -57.5t-28 -154.5q0 -119 26.5 -173.5t81.5 -54.5zM82 510l2 12l115 37q-57 39 -141 53l1 7q102 -7 187 -44q9 0 59 19q10 3 30 9.5t28 9.5l2 -12l-103 -33q108 -52 167 -140t59 -183q0 -114 -65 -185t-171 -71
q-104 0 -168.5 64.5t-64.5 161.5t66.5 163.5t167.5 66.5q33 0 56 -4q-37 64 -98 110z" />
    <glyph glyph-name="ntilde" unicode="&#xf1;" horiz-adv-x="537" 
d="M19 6l15 1q14 1 20 2t12.5 2.5t8 4.5t1.5 7v280q0 46 -7 59.5t-34 19.5l-23 5l1 4l178 48l-3 -86l2 -1q30 26 50 41t55.5 31.5t66.5 16.5q47 0 79 -32t32 -110v-277q0 -10 51 -15l11 -1l3 -6h-236l3 6l18 1q24 2 30.5 5.5t6.5 10.5v262q0 85 -83 85q-46 0 -88 -31v-152
v-166q0 -6 8 -9t36 -5l15 -1l2 -6h-234zM352 497q-33 0 -100.5 31.5t-87.5 31.5q-13 0 -20 -2t-14 -14.5t-9 -37.5h-6q6 71 22.5 97t56.5 26q33 0 100.5 -31t86.5 -31q14 0 21 2.5t14.5 14.5t9.5 36h5q-6 -70 -22.5 -96.5t-56.5 -26.5z" />
    <glyph glyph-name="ograve" unicode="&#xf2;" horiz-adv-x="516" 
d="M257 -5q53 0 83 60.5t30 153.5q0 148 -51 199q-27 25 -61 25q-55 0 -84 -60t-29 -151q0 -150 50 -202q25 -25 62 -25zM256 -14q-106 0 -171.5 66t-65.5 162q0 95 68 161.5t173 66.5t171 -64.5t66 -160.5q0 -98 -67.5 -164.5t-173.5 -66.5zM82 677h116l102 -187h-5z" />
    <glyph glyph-name="oacute" unicode="&#xf3;" horiz-adv-x="516" 
d="M257 -5q53 0 83 60.5t30 153.5q0 148 -51 199q-27 25 -61 25q-55 0 -84 -60t-29 -151q0 -150 50 -202q25 -25 62 -25zM256 -14q-106 0 -171.5 66t-65.5 162q0 95 68 161.5t173 66.5t171 -64.5t66 -160.5q0 -98 -67.5 -164.5t-173.5 -66.5zM318 677h116l-213 -187h-5z" />
    <glyph glyph-name="ocircumflex" unicode="&#xf4;" horiz-adv-x="516" 
d="M257 -5q53 0 83 60.5t30 153.5q0 148 -51 199q-27 25 -61 25q-55 0 -84 -60t-29 -151q0 -150 50 -202q25 -25 62 -25zM256 -14q-106 0 -171.5 66t-65.5 162q0 95 68 161.5t173 66.5t171 -64.5t66 -160.5q0 -98 -67.5 -164.5t-173.5 -66.5zM256 677h4l145 -197h-6l-140 96
h-2l-140 -96h-6z" />
    <glyph glyph-name="otilde" unicode="&#xf5;" horiz-adv-x="516" 
d="M257 -5q53 0 83 60.5t30 153.5q0 148 -51 199q-27 25 -61 25q-55 0 -84 -60t-29 -151q0 -150 50 -202q25 -25 62 -25zM256 -14q-106 0 -171.5 66t-65.5 162q0 95 68 161.5t173 66.5t171 -64.5t66 -160.5q0 -98 -67.5 -164.5t-173.5 -66.5zM337 497q-33 0 -100.5 31.5
t-87.5 31.5q-13 0 -20 -2t-14 -14.5t-9 -37.5h-6q6 71 22.5 97t56.5 26q33 0 100.5 -31t86.5 -31q14 0 21 2.5t14.5 14.5t9.5 36h5q-6 -70 -22.5 -96.5t-56.5 -26.5z" />
    <glyph glyph-name="odieresis" unicode="&#xf6;" horiz-adv-x="516" 
d="M257 -5q53 0 83 60.5t30 153.5q0 148 -51 199q-27 25 -61 25q-55 0 -84 -60t-29 -151q0 -150 50 -202q25 -25 62 -25zM256 -14q-106 0 -171.5 66t-65.5 162q0 95 68 161.5t173 66.5t171 -64.5t66 -160.5q0 -98 -67.5 -164.5t-173.5 -66.5zM355 504q-27 0 -43 18.5
t-16 40.5q0 24 15.5 42.5t43.5 18.5q29 0 44.5 -18.5t15.5 -42.5q0 -23 -16 -41t-44 -18zM161 504q-27 0 -43.5 18.5t-16.5 40.5q0 23 16.5 42t43.5 19q29 0 44.5 -18.5t15.5 -42.5q0 -23 -16 -41t-44 -18z" />
    <glyph glyph-name="divide" unicode="&#xf7;" horiz-adv-x="558" 
d="M278 -2q103 0 171.5 68.5t68.5 175.5q0 105 -67.5 173.5t-170.5 68.5q-102 0 -170.5 -70t-68.5 -175q0 -106 67 -173.5t170 -67.5zM278 -11q-108 0 -177.5 69.5t-69.5 180.5q0 110 71 182t178 72q108 0 178 -70.5t70 -180.5q0 -111 -71 -182t-179 -71z" />
    <glyph glyph-name="oslash" unicode="&#xf8;" horiz-adv-x="516" 
d="M345 367q-18 -31 -47.5 -82.5t-40.5 -70.5l-89 -153q11 -24 27 -41q24 -24 62 -24q53 0 83 60t30 153q0 102 -25 158zM164 73q0 -1 13 21t34.5 59t41.5 72l88 152q-12 22 -22 31q-28 26 -61 26q-54 0 -83.5 -60.5t-29.5 -151.5q0 -94 19 -149zM132 16q-54 30 -83.5 82
t-29.5 116q0 95 68 161.5t173 66.5q56 0 106 -21l91 158h11l-94 -162q58 -28 90.5 -81t32.5 -119q0 -98 -67.5 -164.5t-173.5 -66.5q-66 0 -116 26q-8 -14 -26 -46t-26 -46q-9 -17 -29 -49h-11q9 16 29 50q45 77 55 95z" />
    <glyph glyph-name="ugrave" unicode="&#xf9;" horiz-adv-x="514" 
d="M344 76h-2q-90 -90 -171 -90q-42 0 -76 34q-33 33 -31 110l2 278q0 9 -53 12l-14 1l-3 6h183l-2 -285q-1 -44 20 -64t64 -20t81 29v154v148q0 18 -9 23.5t-42 7.5l-14 1l-3 6h181v-327q0 -29 5 -38t22 -14l37 -8l-1 -4l-176 -52zM81 677h116l102 -187h-5z" />
    <glyph glyph-name="uacute" unicode="&#xfa;" horiz-adv-x="514" 
d="M344 76h-2q-90 -90 -171 -90q-42 0 -76 34q-33 33 -31 110l2 278q0 9 -53 12l-14 1l-3 6h183l-2 -285q-1 -44 20 -64t64 -20t81 29v154v148q0 18 -9 23.5t-42 7.5l-14 1l-3 6h181v-327q0 -29 5 -38t22 -14l37 -8l-1 -4l-176 -52zM317 677h116l-213 -187h-5z" />
    <glyph glyph-name="ucircumflex" unicode="&#xfb;" horiz-adv-x="514" 
d="M344 76h-2q-90 -90 -171 -90q-42 0 -76 34q-33 33 -31 110l2 278q0 9 -53 12l-14 1l-3 6h183l-2 -285q-1 -44 20 -64t64 -20t81 29v154v148q0 18 -9 23.5t-42 7.5l-14 1l-3 6h181v-327q0 -29 5 -38t22 -14l37 -8l-1 -4l-176 -52zM255 677h4l145 -197h-6l-140 96h-2
l-140 -96h-6z" />
    <glyph glyph-name="udieresis" unicode="&#xfc;" horiz-adv-x="514" 
d="M344 76h-2q-90 -90 -171 -90q-42 0 -76 34q-33 33 -31 110l2 278q0 9 -53 12l-14 1l-3 6h183l-2 -285q-1 -44 20 -64t64 -20t81 29v154v148q0 18 -9 23.5t-42 7.5l-14 1l-3 6h181v-327q0 -29 5 -38t22 -14l37 -8l-1 -4l-176 -52zM366 504q-27 0 -43 18.5t-16 40.5
q0 24 15.5 42.5t43.5 18.5q29 0 44.5 -18.5t15.5 -42.5q0 -23 -16 -41t-44 -18zM172 504q-27 0 -43.5 18.5t-16.5 40.5q0 23 16.5 42t43.5 19q29 0 44.5 -18.5t15.5 -42.5q0 -23 -16 -41t-44 -18z" />
    <glyph glyph-name="yacute" unicode="&#xfd;" horiz-adv-x="478" 
d="M95 -256q-27 0 -47.5 16.5t-20.5 44.5q0 23 16.5 40t41.5 17q29 0 45.5 -16.5t20.5 -40.5q19 3 30.5 21t27.5 61l37 104h-13l-166 371q-16 37 -25.5 46.5t-33.5 11.5l-16 1l-3 6h251l-3 -6l-17 -1q-30 -2 -36 -12t5 -36l106 -246l61 170q27 75 19.5 96t-59.5 27l-14 2
l-3 6h177l-3 -6l-16 -2q-32 -2 -45.5 -22t-46.5 -110l-106 -287l-41 -122q-22 -69 -51.5 -101.5t-71.5 -32.5zM305 643h110l-202 -178h-5z" />
    <glyph glyph-name="thorn" unicode="&#xfe;" horiz-adv-x="515" 
d="M272 -3q47 0 73.5 56t26.5 141q0 77 -33 128t-89 51q-48 0 -92 -42v-237q19 -43 50.5 -70t63.5 -27zM-14 -245l18 1q38 4 41 9q1 3 1 6v786q0 32 -7.5 43.5t-33.5 17.5l-23 6l1 4l175 44v-323l3 -3q71 91 157 91q75 0 126.5 -60.5t51.5 -152.5q0 -112 -74 -175t-164 -63
q-59 0 -97 18h-3v-236q0 -11 51 -12l35 -1l3 -8h-264z" />
    <glyph glyph-name="ydieresis" unicode="&#xff;" horiz-adv-x="478" 
d="M95 -256q-27 0 -47.5 16.5t-20.5 44.5q0 23 16.5 40t41.5 17q29 0 45.5 -16.5t20.5 -40.5q19 3 30.5 21t27.5 61l37 104h-13l-166 371q-16 37 -25.5 46.5t-33.5 11.5l-16 1l-3 6h251l-3 -6l-17 -1q-30 -2 -36 -12t5 -36l106 -246l61 170q27 75 19.5 96t-59.5 27l-14 2
l-3 6h177l-3 -6l-16 -2q-32 -2 -45.5 -22t-46.5 -110l-106 -287l-41 -122q-22 -69 -51.5 -101.5t-71.5 -32.5zM341 504q-27 0 -43 18.5t-16 40.5q0 24 15.5 42.5t43.5 18.5q29 0 44.5 -18.5t15.5 -42.5q0 -23 -16 -41t-44 -18zM147 504q-27 0 -43.5 18.5t-16.5 40.5
q0 23 16.5 42t43.5 19q29 0 44.5 -18.5t15.5 -42.5q0 -23 -16 -41t-44 -18z" />
    <glyph glyph-name="dotlessi" unicode="&#x131;" horiz-adv-x="263" 
d="M19 6l15 1q14 1 20 2t12.5 2.5t8 4.5t1.5 7v280q0 46 -7 59.5t-34 19.5l-23 5l1 4l176 48v-418q0 -6 9 -8.5t42 -5.5l11 -1l3 -6h-238z" />
    <glyph glyph-name="Lslash" unicode="&#x141;" horiz-adv-x="579" 
d="M6 249l2 12l98 32v307q0 5 -10 7.5t-47 6.5l-32 3l-3 8h325l-3 -8l-54 -4q-47 -5 -47 -16v-261l101 33l2 -12l-103 -34v-308l74 -6q80 0 127.5 46.5t101.5 160.5l6 13h8l-32 -229h-507l3 8l43 4q47 4 47 16v253z" />
    <glyph glyph-name="lslash" unicode="&#x142;" horiz-adv-x="256" 
d="M1 236l2 13l68 22v268q0 45 -7.5 59t-33.5 20l-22 6l1 4l176 45v-365l69 23l2 -11l-71 -23v-275q0 -5 4.5 -6.5t25.5 -4.5q12 -2 20 -3l9 -1l3 -7h-233l3 7l12 1q14 1 20 2t12.5 2.5t8 4.5t1.5 7v235z" />
    <glyph glyph-name="OE" unicode="&#x152;" horiz-adv-x="952" 
d="M457 12v588l-67 14q-106 0 -165 -83t-59 -204q0 -147 59 -231t179 -84h53zM379 0q-173 0 -262.5 81t-89.5 226q0 135 102.5 226.5t267.5 91.5h474l10 -204h-6l-4 11q-28 99 -80 141.5t-143 40.5l-62 -1v-287h33q67 4 99.5 24t48.5 69l6 18l7 -1l-26 -239l-7 1l-1 18
q-4 54 -32 74t-104 24l-24 2v-302l88 -4q91 2 147 50.5t88 137.5l5 11h6l-28 -209h-513z" />
    <glyph glyph-name="oe" unicode="&#x153;" horiz-adv-x="795" 
d="M660 300q0 131 -70 131q-34 0 -60.5 -37.5t-34.5 -95.5zM257 -8q53 0 82.5 61t29.5 156q0 147 -49 199q-26 26 -62 26q-55 0 -83.5 -60.5t-28.5 -155.5q0 -147 49 -199q25 -27 62 -27zM257 -16q-106 0 -172 65.5t-66 161.5q0 97 68 164.5t174 67.5q109 0 174 -72
q65 72 166 72q81 0 126 -41.5t45 -99.5q0 -3 -2 -17q-89 0 -127 1q-39 0 -93.5 1t-56.5 1q-2 -9 -2 -48q0 -83 42 -134t110 -51q87 0 129 78l7 -3q-68 -145 -202 -145q-84 0 -149 68q-66 -69 -171 -69z" />
    <glyph glyph-name="Scaron" unicode="&#x160;" horiz-adv-x="514" 
d="M245 -12q-111 0 -199 35l-11 160h6l40 -77q58 -108 168 -108q63 0 98.5 34.5t35.5 94.5q0 59 -38 89.5t-117 59.5q-85 32 -129 70t-44 108q0 77 57.5 130.5t148.5 53.5q65 0 140 -25l40 14l3 -174h-5l-84 147q-40 28 -96 28q-49 0 -81 -29t-32 -74q0 -27 10.5 -47.5
t34.5 -36t45 -25.5t58 -23q88 -29 135 -73.5t47 -124.5q0 -82 -66 -144.5t-165 -62.5zM118 859h6l140 -96h2l140 96h6l-145 -197h-4z" />
    <glyph glyph-name="scaron" unicode="&#x161;" horiz-adv-x="376" 
d="M173 -14q-80 0 -144 26l-6 125h5l24 -43q26 -51 54.5 -75t71.5 -24q39 0 62 21.5t23 57.5q0 34 -26.5 55.5t-78.5 41.5q-31 12 -49.5 21.5t-38.5 25t-29.5 37t-9.5 49.5q0 62 44.5 99.5t115.5 37.5q53 0 95 -17l39 10l5 -129l-5 -2l-74 106q-33 23 -62 23
q-36 0 -55.5 -20t-19.5 -54q0 -32 25 -50t80 -39q32 -13 50 -22t40.5 -25.5t32.5 -38.5t10 -52q0 -60 -46.5 -102.5t-132.5 -42.5zM39 663h6l140 -96h2l140 96h6l-145 -197h-4z" />
    <glyph glyph-name="Ydieresis" unicode="&#x178;" horiz-adv-x="647" 
d="M168 6l44 4q47 4 47 17v259l-134 237q-33 57 -49.5 73.5t-49.5 20.5l-21 2l-3 6h310l-3 -6l-17 -1q-46 -4 -55 -18.5t11 -45.5l132 -236h2l75 140q23 43 33.5 66t15.5 42.5t-2.5 28t-22 13.5t-42.5 8l-22 3l-3 6h228l-3 -6l-28 -3q-39 -4 -65.5 -32.5t-78.5 -129.5
l-79 -146v-284q0 -4 3.5 -6t16 -4.5t37.5 -4.5l33 -3l3 -6h-316zM429 671q-27 0 -43 18.5t-16 40.5q0 24 15.5 42.5t43.5 18.5q29 0 44.5 -18.5t15.5 -42.5q0 -23 -16 -41t-44 -18zM235 671q-27 0 -43.5 18.5t-16.5 40.5q0 23 16.5 42t43.5 19q29 0 44.5 -18.5t15.5 -42.5
q0 -23 -16 -41t-44 -18z" />
    <glyph glyph-name="Zcaron" unicode="&#x17d;" horiz-adv-x="601" 
d="M30 4l376 607v2l-89 1q-104 0 -161.5 -44t-89.5 -131l-4 -11h-7l13 197h490v-5l-383 -604v-3l95 -2q118 -4 179.5 43.5t111.5 166.5l6 14h7l-33 -235h-511v4zM159 849h6l140 -96h2l140 96h6l-145 -197h-4z" />
    <glyph glyph-name="zcaron" unicode="&#x17e;" horiz-adv-x="438" 
d="M19 4l253 413l-45 -1q-70 -2 -104.5 -28t-60.5 -84l-19 -41h-5v164h368v-4l-259 -412l45 -1q138 4 203 129l14 27h5l-30 -166h-365v4zM76 658h6l140 -96h2l140 96h6l-145 -197h-4z" />
    <glyph glyph-name="florin" unicode="&#x192;" horiz-adv-x="551" 
d="M103 -72q-49 0 -78.5 20t-29.5 52q0 23 17 41t45 18q37 0 53.5 -34.5t-16.5 -72.5q4 -3 12 -7q14 -6 20 -6q29 0 50 60.5t58 245.5l21 113l-111 2l21 46l103 1q40 139 83 182q51 49 141 49q48 0 76 -20t28 -53q0 -25 -18 -42t-42 -17q-31 0 -46.5 19.5t-8 45.5t36.5 43
q-1 1 -3 2.5t-4.5 3t-3.5 2.5q-11 7 -24 7q-35 0 -54.5 -52.5t-43.5 -169.5l120 -1l-8 -46h-122l-33 -137q-42 -170 -117 -245q-47 -50 -122 -50z" />
    <glyph glyph-name="circumflex" unicode="&#x2c6;" horiz-adv-x="370" 
d="M183 677h4l145 -197h-6l-140 96h-2l-140 -96h-6z" />
    <glyph glyph-name="caron" unicode="&#x2c7;" horiz-adv-x="370" 
d="M38 677h6l140 -96h2l140 96h6l-145 -197h-4z" />
    <glyph glyph-name="breve" unicode="&#x2d8;" horiz-adv-x="390" 
d="M195 485q-100 0 -137 182h5q38 -106 134 -106t134 106h5q-18 -87 -50 -134.5t-91 -47.5z" />
    <glyph glyph-name="dotaccent" unicode="&#x2d9;" horiz-adv-x="398" 
d="M199 517q-30 0 -48.5 20.5t-18.5 45.5q0 26 18.5 47t48.5 21q32 0 49.5 -20.5t17.5 -47.5q0 -25 -18 -45.5t-49 -20.5z" />
    <glyph glyph-name="ring" unicode="&#x2da;" horiz-adv-x="370" 
d="M185 507q36 0 57.5 23.5t21.5 57.5t-21.5 57.5t-57.5 23.5t-57.5 -23.5t-21.5 -57.5t21.5 -57.5t57.5 -23.5zM185 498q-41 0 -65 26t-24 64t24 64t65 26t65 -26t24 -64t-24 -64t-65 -26z" />
    <glyph glyph-name="ogonek" unicode="&#x2db;" horiz-adv-x="396" 
d="M191 -243q-44 0 -73 28t-29 69q0 99 168 165h18q-61 -26 -91.5 -62t-30.5 -73t23.5 -58t59.5 -21q37 0 78 33l3 -3q-18 -27 -53.5 -52.5t-72.5 -25.5z" />
    <glyph glyph-name="tilde" unicode="&#x2dc;" horiz-adv-x="390" 
d="M274 497q-33 0 -100.5 31.5t-87.5 31.5q-13 0 -20 -2t-14 -14.5t-9 -37.5h-6q6 71 22.5 97t56.5 26q33 0 100.5 -31t86.5 -31q14 0 21 2.5t14.5 14.5t9.5 36h5q-6 -70 -22.5 -96.5t-56.5 -26.5z" />
    <glyph glyph-name="hungarumlaut" unicode="&#x2dd;" horiz-adv-x="428" 
d="M343 677h112l-206 -187h-8zM168 677h111l-206 -187h-7z" />
    <glyph glyph-name="pi" unicode="&#x3c0;" horiz-adv-x="704" 
d="M369 296q37 0 60 26.5t23 68.5q0 96 -87 97l-30 -1v-186q15 -5 34 -5zM203 126l27 1q28 4 28 11v341q0 3 -5 4t-29 4l-20 2l-2 6h173q159 0 159 -99q0 -48 -44.5 -77.5t-118.5 -29.5q-21 0 -36 4v-157q0 -5 35 -8l25 -2l2 -6h-195zM352 -5q131 0 224 93.5t93 224.5
q0 132 -93 225.5t-224 93.5t-224 -93.5t-93 -225.5q0 -131 93 -224.5t224 -93.5zM352 -14q-136 0 -231.5 95.5t-95.5 231.5q0 135 96 231.5t231 96.5t231 -96.5t96 -231.5q0 -136 -95.5 -231.5t-231.5 -95.5z" />
    <glyph glyph-name="endash" unicode="&#x2013;" horiz-adv-x="426" 
d="M7 251h413v-34h-416z" />
    <glyph glyph-name="emdash" unicode="&#x2014;" horiz-adv-x="896" 
d="M7 251h883l1 -34h-887z" />
    <glyph glyph-name="quoteleft" unicode="&#x2018;" horiz-adv-x="195" 
d="M108 386q-43 0 -67 28t-24 67q0 49 40.5 95t112.5 71l4 -4q-86 -45 -86 -115q0 -20 9 -34.5t22 -21.5t26 -11t22 -5t9 -2q0 -25 -18 -46.5t-50 -21.5z" />
    <glyph glyph-name="quoteright" unicode="&#x2019;" horiz-adv-x="195" 
d="M21 393q86 45 86 114q0 20 -9 35t-22 22t-26 10.5t-22 5.5l-9 1q0 25 18 46.5t50 21.5q42 0 66.5 -28t24.5 -67q0 -49 -40.5 -95t-112.5 -71z" />
    <glyph glyph-name="quotesinglbase" unicode="&#x201a;" horiz-adv-x="195" 
d="M21 -121q86 45 86 114q0 20 -9 35t-22 22t-26 10.5t-22 5.5l-9 1q0 25 18 46.5t50 21.5q42 0 66.5 -28t24.5 -67q0 -49 -40.5 -95t-112.5 -71z" />
    <glyph glyph-name="quotedblleft" unicode="&#x201c;" horiz-adv-x="382" 
d="M108 386q-43 0 -67 28t-24 67q0 49 40.5 95t112.5 71l4 -4q-86 -45 -86 -115q0 -20 9 -34.5t22 -21.5t26 -11t22 -5t9 -2q0 -25 -18 -46.5t-50 -21.5zM295 386q-42 0 -66.5 28t-24.5 67q0 49 40.5 95t112.5 71l4 -4q-86 -45 -86 -115q0 -20 9 -34.5t22 -21.5t26 -11
t22 -5t9 -2q0 -25 -18 -46.5t-50 -21.5z" />
    <glyph glyph-name="quotedblright" unicode="&#x201d;" horiz-adv-x="382" 
d="M208 393q86 45 86 114q0 20 -9 35t-22 22t-26 10.5t-22 5.5l-9 1q0 25 18 46.5t50 21.5q43 0 67 -28t24 -67q0 -49 -40.5 -95t-112.5 -71zM21 393q86 45 86 114q0 20 -9 35t-22 22t-26 10.5t-22 5.5l-9 1q0 25 18 46.5t50 21.5q42 0 66.5 -28t24.5 -67q0 -49 -40.5 -95
t-112.5 -71z" />
    <glyph glyph-name="quotedblbase" unicode="&#x201e;" horiz-adv-x="382" 
d="M208 -121q86 45 86 114q0 20 -9 35t-22 22t-26 10.5t-22 5.5l-9 1q0 25 18 46.5t50 21.5q43 0 67 -28t24 -67q0 -49 -40.5 -95t-112.5 -71zM21 -121q86 45 86 114q0 20 -9 35t-22 22t-26 10.5t-22 5.5l-9 1q0 25 18 46.5t50 21.5q42 0 66.5 -28t24.5 -67q0 -49 -40.5 -95
t-112.5 -71z" />
    <glyph glyph-name="dagger" unicode="&#x2020;" horiz-adv-x="433" 
d="M211 414h-202l-1 10h203v201h11v-201h203l-1 -10h-202v-570h-11v570z" />
    <glyph glyph-name="daggerdbl" unicode="&#x2021;" horiz-adv-x="433" 
d="M211 36h-203l1 10h202v376h-202l-1 10h203v193h11v-193h203l-1 -10h-202v-376h202l1 -10h-203v-192h-11v192z" />
    <glyph glyph-name="bullet" unicode="&#x2022;" horiz-adv-x="425" 
d="M212 39q-21 0 -71 21t-64 35q-15 17 -36 66.5t-21 70.5t21 71t36 65t65 35.5t71 20.5t72 -20.5t64 -35.5q15 -13 35.5 -64t20.5 -72t-20 -71t-36 -66q-15 -15 -65 -35.5t-72 -20.5z" />
    <glyph glyph-name="ellipsis" unicode="&#x2026;" horiz-adv-x="641" 
d="M321 -11q-29 0 -48.5 20t-19.5 48q0 27 19.5 46t48.5 19q27 0 47 -20t20 -45q0 -28 -19.5 -48t-47.5 -20zM103 -11q-29 0 -48.5 20t-19.5 48q0 26 19.5 45.5t47.5 19.5t47.5 -19.5t19.5 -45.5q0 -28 -19 -48t-47 -20zM539 -11q-28 0 -47.5 20t-19.5 48q0 26 19.5 45.5
t47.5 19.5t47.5 -19.5t19.5 -45.5q0 -28 -19 -48t-48 -20z" />
    <glyph glyph-name="perthousand" unicode="&#x2030;" horiz-adv-x="817" 
d="M132 395q51 0 82 33.5t31 83.5t-31.5 84.5t-81.5 34.5t-81 -35t-31 -84q0 -50 30.5 -83.5t81.5 -33.5zM132 386q-56 0 -90 36.5t-34 89.5t34 90.5t90 37.5q57 0 91 -37.5t34 -90.5t-34 -89.5t-91 -36.5zM396 -4q51 0 82 33t31 83t-31.5 85t-81.5 35t-81 -35t-31 -85
t30.5 -83t81.5 -33zM396 -13q-56 0 -90 36.5t-34 88.5q0 54 34 91.5t90 37.5q57 0 91 -37.5t34 -91.5q0 -52 -34 -88.5t-91 -36.5zM684 -4q51 0 82 33t31 83t-31.5 85t-81.5 35t-81 -35t-31 -85t30.5 -83t81.5 -33zM684 -13q-56 0 -90 36.5t-34 88.5q0 54 34 91.5t90 37.5
q57 0 91 -37.5t34 -91.5q0 -52 -34 -88.5t-91 -36.5zM471 640h12l-428 -654h-12z" />
    <glyph glyph-name="guilsinglleft" unicode="&#x2039;" horiz-adv-x="269" 
d="M12 216v13l235 176l3 -3l-120 -181l120 -179l-3 -3z" />
    <glyph glyph-name="guilsinglright" unicode="&#x203a;" horiz-adv-x="270" 
d="M18 42l120 179l-121 181l3 3l236 -176v-13l-236 -177z" />
    <glyph glyph-name="fraction" unicode="&#x2044;" horiz-adv-x="459" 
d="M457 641h14l-469 -654h-14z" />
    <glyph glyph-name="Euro" unicode="&#x20ac;" horiz-adv-x="511" 
d="M305 -12q-91 0 -157.5 65t-84.5 175h-64l3 10h59q-3 31 -3 58q0 38 5 62h-64l3 10h63q23 119 105 190.5t179 71.5q71 0 110.5 -22.5t39.5 -65.5q0 -24 -18.5 -42t-45.5 -18q-45 0 -60 44t16 76q-1 1 -5 3.5t-7 4.5t-8 4t-11.5 3t-14.5 1q-66 0 -109.5 -69t-51.5 -181h188
l3 -10h-191q-1 -12 -1 -38q0 -40 6 -82h183l3 -10h-182q18 -79 64.5 -124t111.5 -45q48 0 81 19t59 64l7 -4q-74 -150 -211 -150z" />
    <glyph glyph-name="trademark" unicode="&#x2122;" horiz-adv-x="412" 
d="M190 471h5q13 0 15.5 3.5t3.5 17.5l3 116q-7 11 -19 13l-8 1l-1 3h63l39 -105h1l40 105h65l-1 -3l-12 -1q-12 -1 -12 -4l4 -142q0 -1 2 -1q6 0 12 -2l8 -1l1 -3h-86v3l12 1q10 1 10 4l-2 137h-1l-55 -145h-4l-52 135h-1l-2 -114q0 -12 4 -15t19 -3h5l1 -3h-58zM57 471
l11 1q11 2 11 4v146h-7q-27 0 -49 -46l-2 -4h-3l7 53h149l5 -53h-2l-2 4q-24 46 -47 46h-9v-147q0 -1 2 -1q5 0 12 -2l7 -1v-3h-83v3z" />
    <glyph glyph-name="Omega" unicode="&#x2126;" horiz-adv-x="595" 
d="M376 549q-14 -8 -30 -8q-30 0 -49 25t-22 65l-21 6q-30 -9 -43.5 -41.5t-13.5 -102.5v-66l158 -1l3 57q3 36 18 66zM402 588q66 74 168 74q84 0 84 -55q0 -21 -16 -36.5t-39 -15.5q-52 0 -69 76l-1 8l-17 4q-26 -10 -35 -39.5t-9 -102.5v-74h124l-17 -49h-107v-357
q0 -13 51 -14l34 -1l2 -6h-258l2 6l18 1q26 2 32 4.5t6 11.5v358h-158v-360q0 -6 7.5 -9t35.5 -5l22 -1l3 -6h-244l3 6l18 1q14 1 20 2t12.5 2.5t8 4.5t1.5 7v356l-79 1l23 47l56 -1l2 36q9 97 76 144t154 47q41 0 63.5 -16.5t22.5 -43.5v-5z" />
    <glyph glyph-name="Delta" unicode="&#x2206;" horiz-adv-x="493" 
d="M178 -12q-78 0 -120.5 28.5t-42.5 74.5q0 32 20 51t51 19q30 0 49 -18.5t19 -46.5q0 -19 -11 -37t-31 -26q20 -34 69 -34q51 0 70.5 32t19.5 117v455q0 10 -58 13l-39 3l-3 6h323l-3 -6l-44 -4q-47 -4 -47 -15v-458q0 -43 -73 -98.5t-149 -55.5z" />
    <glyph glyph-name="radical" unicode="&#x221a;" horiz-adv-x="812" 
d="M382 554q-14 -13 -37 -13q-29 0 -47.5 24t-22.5 66l-21 6q-30 -9 -43.5 -41.5t-13.5 -102.5v-66l158 -1l3 49q5 45 24 79zM739 672v-651q0 -6 8 -8t43 -6l11 -1l3 -6h-235l3 6l17 1q25 2 31 4.5t6 11.5v358h-158v-360q0 -6 7.5 -9t35.5 -5l24 -1l2 -6h-240l2 6l18 1
q26 2 32 4.5t6 11.5v358h-158v-360q0 -6 7.5 -9t35.5 -5l22 -1l3 -6h-244l3 6l18 1q14 1 20 2t12.5 2.5t8 4.5t1.5 7v356l-79 1l23 47l56 -1l2 36q9 97 76 144t154 47q41 0 63.5 -16.5t22.5 -43.5q0 -7 -3 -15q35 43 89 66.5t111 23.5q44 0 68 -21zM626 560q-30 4 -49.5 28
t-21.5 54l-24 7q-34 -10 -48.5 -45.5t-14.5 -112.5v-64h158v133z" />
    <glyph glyph-name="approxequal" unicode="&#x2248;" horiz-adv-x="815" 
d="M385 557q-16 -16 -40 -16q-30 0 -49 27.5t-21 62.5l-21 6q-30 -9 -43.5 -41.5t-13.5 -102.5v-66l158 -1l3 49q4 46 27 82zM398 575q36 44 92 68.5t114 24.5q44 0 69.5 -18.5t25.5 -48.5q0 -23 -17.5 -40.5t-40.5 -17.5q-34 0 -55.5 29t-25.5 70l-24 7q-35 -10 -51.5 -45
t-16.5 -110v-67h210l61 12v-418q0 -6 9 -8.5t42 -5.5l12 -1l3 -6h-236l3 7l18 1q25 2 30.5 4.5t5.5 11.5v357h-158v-360q0 -6 7.5 -9t35.5 -5l24 -1l2 -6h-240l2 6l18 1q26 2 32 4.5t6 11.5v358h-158v-360q0 -6 7.5 -9t35.5 -5l22 -1l3 -6h-244l3 6l18 1q14 1 20 2t12.5 2.5
t8 4.5t1.5 7v356l-79 1l23 47l56 -1l2 36q9 97 76 144t154 47q41 0 63.5 -16.5t22.5 -43.5q0 -11 -4 -18z" />
    <glyph glyph-name="apple" unicode="&#xf8ff;" horiz-adv-x="758" 
d="M442 169l192 -104l-103 193l206 63l-206 61l103 192l-192 -103l-62 207l-64 -207l-191 103l103 -192l-208 -62l208 -64l-103 -191l191 104l62 -208zM294 115l-187 -68l68 187l-181 86l181 83l-68 189l187 -69l86 181l83 -181l189 69l-69 -189l180 -82l-180 -85l69 -189
l-189 69l-85 -181z" />
    <glyph glyph-name="fi" unicode="&#xfb01;" horiz-adv-x="544" 
d="M24 6l18 1q14 1 20 2t12.5 2.5t8 4.5t1.5 7v356l-79 1l23 47l56 -1l3 49q6 87 81.5 140t163.5 53q44 0 69.5 -18.5t25.5 -48.5q0 -23 -17 -40.5t-41 -17.5q-34 0 -55 29t-25 70l-25 7q-34 -10 -50.5 -45t-16.5 -110v-67h210l61 12v-418q0 -6 9 -8.5t42 -5.5l11 -1l3 -6
h-236l2 6l18 1q26 2 32 4.5t6 11.5v358h-158v-360q0 -6 7.5 -9t35.5 -5l22 -1l3 -6h-244z" />
    <glyph glyph-name="fl" unicode="&#xfb02;" horiz-adv-x="540" 
d="M468 672v-651q0 -6 8 -8t43 -6l11 -1l3 -6h-236l3 6l13 1q14 1 20 2t12.5 2.5t8 4.5t1.5 7v358h-158v-360q0 -6 7.5 -9t35.5 -5l22 -1l3 -6h-244l3 6l18 1q14 1 20 2t12.5 2.5t8 4.5t1.5 7v356l-79 1l23 47l56 -1l3 49q6 87 79 140t158 53q46 0 69 -22zM355 559
q-32 2 -53.5 27.5t-21.5 55.5l-21 7q-34 -10 -48 -44.5t-14 -110.5v-67h158v132z" />
    </font>
</defs>
</svg>
