<svg xmlns="http://www.w3.org/2000/svg" xmlns:xlink="http://www.w3.org/1999/xlink"><symbol viewBox="0 0 23.04 7.07" id="arrow-left" xmlns="http://www.w3.org/2000/svg"><path d="M0 3.53l3.54 3.54V4.03h19.5v-1H3.54V0L0 3.53z"/></symbol><symbol viewBox="0 0 23.04 7.07" id="arrow-right" xmlns="http://www.w3.org/2000/svg"><path d="M23.04 3.54L19.5 0v3.04H0v1h19.5v3.03l3.54-3.53z"/></symbol><symbol viewBox="0 0 13.6 16.5" id="cart" xmlns="http://www.w3.org/2000/svg"><path d="M13.6 15.3l-1.7-9.8h-1.6v-1c.1-1.6-.3-2.9-1-3.6C8.7.3 7.9 0 6.8 0c-1 0-1.8.3-2.4.9-.7.8-1.1 2-1 3.6v1H1.7L0 15.3c-.1.5.3 1.1.8 1.2H12.6c.6 0 1-.4 1-1v-.2zM4.3 4.5c0-1.4.2-2.3.8-2.9.4-.4.9-.6 1.7-.6.8 0 1.3.2 1.7.6.5.6.8 1.5.7 2.9v1h-5v-1z"/></symbol><symbol id="dogstudio" viewBox="0 0 26 28" xmlns="http://www.w3.org/2000/svg"><style>.dst0{fill:#af976d}</style><path class="dst0" d="M22.4 9.8c-.5-.7-1.2-1.4-2.1-1.9.1-.9.2-1.9.2-2.8 0-1.3-.2-2.6-.6-3.9L19.6 0 19 1.1s-.7 1.3-1.9 2.7c.1-.2.2-.4.2-.5L18 2l-1.3.8c-4.3 2.6-7.7 7.1-8.3 8-.5.6-1 1.3-1.4 1.8-1 1.3-2 2.7-3.5 3.9-1.1.8-2.2 1.6-2.5 1.8l-1 .5 1 .3c.1 0 1.7.6 4.2.6 1 0 2-.1 3-.3 0 3 .4 6.3 1.2 8.4v.2h.1c.1 0 .1-.1.2-.4.1-.2.1-.4.2-.6 2.7-6.9 8-10 11.9-11.4l.6-.2c1.9-.6 3.2-.7 3.2-.7h.3l-.2-.2c.1 0-1.4-1.8-3.3-4.7zm-17.8 7C6 15.6 7 14.3 7.8 13.1c.4-.6 1.3-1.7 1.3-1.7v-.1c.3-.4.7-.8 1-1.1-.6.9-1 2.1-1.3 3.5-.3 1.4-.5 3-.6 4.7-.7.1-1.3.2-2 .3-.1-.3-.3-.6-.4-.8-.4-.4-.8-.8-1.2-1.1zM15.4 5.6c-.6.5-1.3 1-1.9 1.4-.4.2-.8.3-1.2.5 1.2-1.2 2.3-2.2 3.5-3.1-.1.4-.3.8-.4 1.2zm-3 7.6c.6.1 1.1.2 1.8.6.5.3.9.6 1.3 1-1.6 1.5-3.3 2.4-3.4 2.4-.9.4-1.8.8-2.8 1.1.1-1.4.2-2.3.4-3.4.6-.3 1.8-.9 2.7-1.7zm-2.5.5c.1-.2.1-.4.1-.5.2 0 .5-.1.9-.1-.4.3-.8.5-1 .6zm1.4-1.6c-.4 0-.7 0-1 .1.1-.2.1-.4.2-.5 1.1-.9 3.6-1.4 6.1-.8 1.5.4 3.6 1.4 4.8 4-1.3.5-2.6 1.1-3.8 1.8-.6-1.7-1.6-2.9-3-3.7-1.2-.7-2.4-.9-3.3-.9zm1.2 5.9c.2-.1 1.9-1 3.5-2.5.3.5.6 1 .7 1.7-3.1 2-5.5 4.7-7.1 8-.3-1.8-.5-3.9-.5-5.9 1.2-.4 2.3-.8 3.4-1.3zm-1.1-7.8c.6-.8 1.3-1.4 2.1-1.8.9-.4 1.9-.7 2.8-.7 2.3 0 4.4 1.3 5.2 2.6 1.1 1.6 2 2.9 2.6 3.7-.6.1-1.2.3-1.8.5-1.4-3-3.8-4.1-5.5-4.6-.8-.2-1.6-.3-2.3-.3-1.2.1-2.3.3-3.1.6zm7.9-2.8c-1-.4-2-.6-3-.6-.3 0-.6 0-.9.1 1.9-1.5 3.2-3.1 3.9-4.2.2.8.2 1.6.2 2.5 0 .7 0 1.4-.2 2.2zM5.1 18.8c-1.1 0-2.1-.1-2.8-.3.4-.3.9-.6 1.4-1 .5.2.9.6 1.2 1 .1 0 .2.1.2.3z"/></symbol><symbol viewBox="0 0 25 18.8" id="email" xmlns="http://www.w3.org/2000/svg"><path d="M25 15.6c0 .5-.2 1.1-.4 1.5l-7.9-8.8 7.8-6.8c.3.5.5 1 .5 1.7v12.4zM12.5 9.9L23.4.4c-.5-.3-1-.4-1.5-.4H3.1c-.5 0-1 .1-1.5.4l10.9 9.5zm3-.6L13 11.5c-.1.1-.3.2-.5.2s-.4-.1-.5-.2L9.5 9.3l-8 8.9c.5.3 1 .5 1.6.5h18.8c.6 0 1.2-.2 1.6-.5l-8-8.9zM.5 1.5c-.3.4-.5 1-.5 1.6v12.5c0 .5.2 1.1.4 1.5l7.9-8.8L.5 1.5z"/></symbol><symbol id="error" viewBox="0 0 21 21" xmlns="http://www.w3.org/2000/svg"><style>.fst0{fill:none;stroke:#000}</style><circle id="fOval" class="fst0" cx="10.5" cy="10.5" r="10"/><path d="M13.7 8l-.7-.7-2.5 2.5L8 7.3l-.7.7 2.5 2.5L7.3 13l.7.7 2.5-2.5 2.5 2.5.7-.7-2.5-2.5z"/></symbol><symbol viewBox="0 0 14 30" id="facebook" xmlns="http://www.w3.org/2000/svg"><path d="M9.4 30H3.8V15H0V9.8h3.8v-3C3.7 2.6 4.9 0 9.9 0H14v5.2h-2.6c-1.9 0-2 .7-2 2.1v2.6H14l-.5 5.1H9.4v15z"/></symbol><symbol viewBox="0 0 30 30" id="instagram" xmlns="http://www.w3.org/2000/svg"><path d="M21.9 0H8.1C3.6 0 0 3.6 0 8.1v13.8C0 26.4 3.6 30 8.1 30h13.8c4.5 0 8.1-3.6 8.1-8.1V8.1C30 3.6 26.4 0 21.9 0zm5.7 21.9c0 3.1-2.5 5.7-5.7 5.7H8.1c-3.1 0-5.7-2.5-5.7-5.7V8.1C2.4 5 5 2.4 8.1 2.4h13.8c3.1 0 5.7 2.5 5.7 5.7v13.8z"/><path d="M21.7 14c-.2-1.4-.9-2.7-1.9-3.8-1-1-2.3-1.7-3.8-1.9-.7-.1-1.3-.1-2 0-1.8.3-3.3 1.2-4.4 2.6s-1.5 3.2-1.3 5c.3 1.8 1.2 3.3 2.6 4.4 1.2.9 2.6 1.3 4 1.3.3 0 .7 0 1-.1 1.8-.3 3.3-1.2 4.4-2.6 1.2-1.4 1.7-3.2 1.4-4.9zm-6 5.2c-1.1.2-2.3-.1-3.2-.8-.9-.7-1.5-1.7-1.7-2.8-.2-1.1.1-2.3.8-3.2.7-.9 1.7-1.5 2.8-1.7h1.2c1.9.3 3.3 1.7 3.6 3.6.5 2.4-1.2 4.5-3.5 4.9zM23.4 6.6c-.2-.2-.5-.4-.9-.4-.3 0-.6.1-.9.4-.2.2-.4.5-.4.9s.1.6.4.9c.2.2.5.4.9.4.3 0 .6-.1.9-.4.2-.2.4-.5.4-.9s-.1-.7-.4-.9z"/></symbol><symbol viewBox="0 0 19.4 26.8" id="marker" xmlns="http://www.w3.org/2000/svg"><path d="M9.7 0C4.4 0 0 4.4 0 9.7c0 6.6 8.7 16.4 9.1 16.8.3.4 1 .4 1.3 0 .4-.4 9.1-10.2 9.1-16.8C19.4 4.4 15.1 0 9.7 0zm0 14.6c-2.7 0-4.9-2.2-4.9-4.9S7 4.8 9.7 4.8s4.9 2.2 4.9 4.9-2.2 4.9-4.9 4.9z"/></symbol><symbol viewBox="0 0 31.8 11.66" id="medium-button" xmlns="http://www.w3.org/2000/svg"><title>Group 2</title><g data-name="BUTTONS/MEDIUM/BLACK"><g data-name="BLACK/BUTTONS/MEDIUM"><path d="M2.4 8.94c-.8.28-2-.83-1.25-1.53a2.1 2.1 0 0 1 2.94.86 2.74 2.74 0 0 0 4 1.21c2.58 3.26 8.71 2.77 11.68-.86a4.33 4.33 0 0 0 .64-1.18c0-.26-.15-.26-.59.41a7.08 7.08 0 0 1-6.55 2.76c-1.23-.23-1.39-1.12-1-1.77.18-.34.93-.4.64-.58-.83-.52-3-.15-2.79 1.68-1.7-1.18-2.74-3.39-5-4C3.27 5.4.97 5.54.2 7.43c-.69 1.7.49 2.85 2.33 2.83C4.09 10.25 4 8.37 2.4 8.94z"/><path data-name="Fill-1" d="M28.47 3.79c1.11-.4 2.85 1.16 1.74 2.13s-3.59.18-4.1-1.2a3.82 3.82 0 0 0-5.52-1.68C16.98-1.51 8.47-.83 4.27 4.24a6 6 0 0 0-.9 1.65c0 .37.21.37.83-.57a9.89 9.89 0 0 1 9.08-3.89C15 1.76 15.22 3 14.74 3.9c-.25.47-1.29.56-.89.81 1.16.73 4.18.21 3.89-2.35 2.38 1.64 3.82 4.73 7 5.65 2.52.73 5.73.54 6.8-2.1 1-2.37-.69-4-3.25-4-2.2.06-2.07 2.7.18 1.88z"/></g></g></symbol><symbol viewBox="0 0 27 27" id="message" xmlns="http://www.w3.org/2000/svg"><path d="M13.5 0C6 0 0 5.6 0 12.5c0 3.9 2 7.4 5 9.7V27l4.6-2.5c1.2.3 2.5.5 3.9.5C21 25 27 19.4 27 12.5S21 0 13.5 0zm1.3 16.8l-3.4-3.7-6.7 3.7L12.1 9l3.5 3.7L22.2 9l-7.4 7.8z"/></symbol><symbol viewBox="0 0 27 27" id="messenger" xmlns="http://www.w3.org/2000/svg"><path d="M13.5 0C6 0 0 5.6 0 12.5c0 3.9 2 7.4 5 9.7V27l4.6-2.5c1.2.3 2.5.5 3.9.5C21 25 27 19.4 27 12.5S21 0 13.5 0zm1.3 16.8l-3.4-3.7-6.7 3.7L12.1 9l3.5 3.7L22.2 9l-7.4 7.8z"/></symbol><symbol viewBox="0 0 18 23" id="pinterest" xmlns="http://www.w3.org/2000/svg"><path d="M15.7 2.4C14.1.8 11.9 0 9.5 0 5.9 0 3.6 1.5 2.4 2.8.9 4.3 0 6.4 0 8.4c0 2.6 1.1 4.5 2.9 5.3.1 0 .2.1.4.1.4 0 .7-.2.8-.6.1-.2.2-.8.3-1 .1-.5 0-.7-.3-1-.5-.6-.8-1.3-.8-2.3 0-2.8 2.1-5.8 5.9-5.8 3.1 0 5 1.7 5 4.6 0 1.8-.4 3.4-1.1 4.6-.5.7-1.4 1.7-2.7 1.7-.6 0-1.1-.2-1.4-.6-.3-.4-.4-.9-.3-1.4.1-.6.3-1.2.5-1.8.3-1.1.6-2.1.6-2.9.1-1.4-.7-2.3-2-2.3C6.2 5 5 6.6 5 8.7c0 1 .3 1.8.4 2.1-.2.9-1.4 5.9-1.6 6.9-.1.6-.9 5 .4 5.3 1.5.4 2.8-3.9 2.9-4.4.1-.4.5-1.9.7-2.8.7.7 1.8 1.1 3 1.1 2.1 0 4-.9 5.3-2.7 1.3-1.7 2-4 2-6.5-.1-2-1-3.9-2.4-5.3z"/></symbol><symbol id="question" viewBox="0 0 13 17.2" xmlns="http://www.w3.org/2000/svg"><style>.nst0{enable-background:new}</style><path d="M4.3 10.7c0-.8.2-1.4.6-1.9.4-.5 1.1-1 2.1-1.4 1.1-.5 1.8-.9 2.2-1.2.4-.3.6-.8.6-1.2 0-.6-.3-1.2-.9-1.5-.4-.6-1.2-.8-2-.8-1.2 0-2.1.3-2.8.9-.6.6-1 1.5-1.1 2.5l-3-.3c.1-1.2.4-2.2.9-3.1s1.4-1.5 2.4-2S5.5 0 6.8 0C8 0 9 .2 10 .6c.9.4 1.7 1 2.2 1.7.6.8.8 1.6.8 2.5 0 1-.3 1.8-1 2.5-.6.7-1.6 1.3-3 1.9-.7.3-1.1.6-1.4.9-.3.3-.4.7-.4 1.2v.8H4.3v-1.4zm-.2 3h3.6v3.4H4.1v-3.4z" class="nst0"/></symbol><symbol viewBox="0 0 12.31 12.31" id="search" xmlns="http://www.w3.org/2000/svg"><title>search</title><path d="M10.85 1.47A4.8 4.8 0 0 0 7.33 0a4.8 4.8 0 0 0-3.52 1.47 4.8 4.8 0 0 0-1.46 3.52 4.92 4.92 0 0 0 1.1 3.14L.17 11.41a.47.47 0 0 0-.17.37.52.52 0 0 0 .16.38.52.52 0 0 0 .38.16.47.47 0 0 0 .37-.17l3.28-3.28a4.92 4.92 0 0 0 3.14 1.1 4.8 4.8 0 0 0 3.52-1.46 4.8 4.8 0 0 0 1.46-3.52 4.8 4.8 0 0 0-1.46-3.52zm-.55 6.51a4 4 0 0 1-3 1.22 4.06 4.06 0 0 1-3-1.23 4.06 4.06 0 0 1-1.23-3 4.06 4.06 0 0 1 1.23-3 4.06 4.06 0 0 1 3-1.23 4.06 4.06 0 0 1 3 1.23 4.06 4.06 0 0 1 1.23 3 4.08 4.08 0 0 1-1.23 3.01z"/></symbol><symbol viewBox="0 0 210 14.1" id="separator" xmlns="http://www.w3.org/2000/svg"><path d="M3.5 4.9L0 8.5 3.5 12l3-3H67V8H6.6L3.5 4.9zm0 5.7L1.4 8.5l2.1-2.1 2.1 2.1-2.1 2.1zM210 8.5L206.5 5l-3 3H143v1h60.4l3 3 3.6-3.5zm-3.5-2.1l2.1 2.1-2.1 2.1-2.1-2.1 2.1-2.1zM131.3 6c-3.2.9-4.6 4-7 5.6.3-2.6-2.7-3.1-3.9-2.3-.4.3.6.3.9.8.5.9.3 2.1-1.5 2.5-3 .6-7.3-1.1-9.1-3.9 0-.1-.1-.1-.1-.1l1.5-1.5-.1-.2h.1c2.3-.7 3.3-2.9 5-4-.2 1.8 2 2.2 2.8 1.7.3-.2-.5-.2-.6-.6-.3-.6-.2-1.5 1-1.8 2.1-.4 5.2.8 6.5 2.8.4.7.6.7.6.4-.3-.7-.2-.6-.6-1.2-3-3.6-9.1-4.1-11.7-.9-1.8-1.2-3.6.3-4 1.2-.1.3-.4.6-.7.8l-1.5-1.5h.5c1.6.6 1.7-1.3.1-1.3-.6 0-1.1.1-1.6.3L105.1 0l-3.4 3.4c-.4-.6-1.2-.9-2.2-.9-1.6 0-1.5 1.9.1 1.3.4-.1.9.1 1.2.4l-1.4 1.4c-.7-.1-1.3-.6-1.5-1.1-.4-.9-2.1-2.4-4-1.2-2.6-3.3-8.7-2.8-11.7.9-.4.5-.3.5-.6 1.2 0 .3.2.3.6-.4 1.3-2 4.4-3.2 6.5-2.8 1.2.2 1.4 1.1 1 1.8-.2.3-.9.4-.6.6.8.5 3 .2 2.8-1.7 1.7 1.2 2.7 3.4 5 4 .4.1.8.1 1.1.2l.4.4c0 .1-.1.1-.1.2-1.8 2.8-6.1 4.5-9.1 3.9-1.7-.3-1.9-1.6-1.5-2.5.2-.5 1.3-.6.9-.8-1.2-.7-4.2-.2-3.9 2.3C82.4 9 81 5.9 77.8 5c-2.5-.7-5.7-.5-6.8 2.1-1 2.4.7 4 3.2 4 2.2 0 2.1-2.6-.2-1.8-1.1.4-2.9-1.2-1.7-2.1 1.2-1 3.6-.2 4.1 1.2.5 1.3 2.9 3.3 5.5 1.7 3.6 4.6 12.2 3.9 16.3-1.2.4-.5.4-.6.6-.9l6.2 6.2 5.2-5.2c.1.2.2.4.5.8 4.2 5.1 12.7 5.8 16.3 1.2 2.6 1.7 5-.4 5.5-1.7.5-1.4 2.9-2.2 4.1-1.2 1.1 1-.6 2.5-1.7 2.1-2.2-.8-2.4 1.8-.2 1.8 2.6 0 4.2-1.6 3.2-4-.9-2.5-4.1-2.7-6.6-2zM99.4 7.1l5.7-5.7 5.7 5.7-5.7 5.7-5.7-5.7z"/></symbol><symbol viewBox="0 0 30 25" id="twitter" xmlns="http://www.w3.org/2000/svg"><path d="M30 3c-1.1.5-2.3.8-3.5 1 1.3-.8 2.2-2 2.7-3.5-1.2.7-2.5 1.2-3.9 1.5-1.1-1.2-2.7-2-4.5-2-3.4 0-6.2 2.8-6.2 6.3 0 .5.1 1 .2 1.4C9.7 7.5 5.1 5 2.1 1.2c-.5.9-.8 2-.8 3.2 0 2.2 1.1 4.1 2.7 5.3-1 0-2-.3-2.8-.8V9c0 3.1 2.1 5.6 4.9 6.2-.5.1-1.1.2-1.6.2-.4 0-.8 0-1.2-.1.8 2.5 3.1 4.3 5.7 4.4-2.1 1.7-4.8 2.7-7.6 2.7-.5 0-1 0-1.5-.1C2.7 24 6 25 9.4 25c11.3 0 17.5-9.6 17.5-18v-.8c1.2-.9 2.3-2 3.1-3.2z"/></symbol><symbol viewBox="0 0 14 14" id="user" xmlns="http://www.w3.org/2000/svg"><path d="M9.4 8.6c1.3-.8 2.2-2.3 2.2-4C11.7 2.1 9.6 0 7 0S2.3 2.1 2.3 4.7c0 1.7.9 3.2 2.2 4-2.3.8-4 2.9-4.5 5.3h1.2c.6-2.7 3-4.7 5.8-4.7s5.2 2 5.8 4.7H14c-.5-2.5-2.2-4.6-4.6-5.4zM3.5 4.7c0-1.9 1.6-3.5 3.5-3.5s3.5 1.6 3.5 3.5S8.9 8.2 7 8.2 3.5 6.6 3.5 4.7z"/></symbol><symbol viewBox="0 0 21 21" id="valid" xmlns="http://www.w3.org/2000/svg"><path d="M9 14.2l-2.9-3 .8-.7L9 12.8l5.1-5.6.8.6z"/><path d="M10.5 21C4.7 21 0 16.3 0 10.5S4.7 0 10.5 0 21 4.7 21 10.5 16.3 21 10.5 21zm0-20C5.3 1 1 5.3 1 10.5S5.3 20 10.5 20s9.5-4.3 9.5-9.5S15.7 1 10.5 1z"/></symbol><symbol viewBox="0 0 20.2 18.3" id="warning" xmlns="http://www.w3.org/2000/svg"><path d="M17.2 18.3H3c-1.7 0-3-1.3-3-3 0-.5.1-1 .4-1.5L7.5 1.5C7.9.8 8.5.3 9.3.1c.8-.2 1.6-.1 2.3.3.5.3.8.6 1.1 1.1l7.1 12.3c.8 1.4.3 3.3-1.1 4.1-.4.3-.9.4-1.5.4zM10.1 1c-.2 0-.3 0-.5.1-.5.1-.9.4-1.2.9L1.3 14.3c-.2.3-.3.7-.3 1 0 1.1.9 2 2 2h14.2c.4 0 .7-.1 1-.3 1-.6 1.3-1.8.7-2.7L11.8 2c-.2-.3-.4-.6-.7-.7-.3-.2-.6-.3-1-.3z"/><path d="M9.6 5.3h1v5h-1zM9.6 12.3h1v2h-1z"/></symbol><symbol viewBox="0 0 30 30" id="youtube" xmlns="http://www.w3.org/2000/svg"><path d="M22.4 10.4c-.6-.7-1.6-.9-3.7-.9h-7.4c-2.1 0-3.2.3-3.7 1-.6.7-.6 1.7-.6 3.1v2.7c0 2.8.7 4.1 4.3 4.1h7.4c1.8 0 2.7-.2 3.4-.8.6-.6.9-1.6.9-3.3v-2.7c0-1.5 0-2.5-.6-3.2zm-5.1 5l-3.4 1.7c-.1 0-.2.1-.2.1-.1 0-.2 0-.3-.1-.2-.1-.2-.3-.2-.4v-3.4c0-.2.1-.3.2-.4.2-.1.3-.1.5 0l3.4 1.7c.2.1.3.3.3.4-.1.1-.2.3-.3.4z"/></symbol></svg>